<?xml version="1.0" encoding="utf-8" standalone="no"?>
<!DOCTYPE svg PUBLIC "-//W3C//DTD SVG 1.1//EN"
  "http://www.w3.org/Graphics/SVG/1.1/DTD/svg11.dtd">
<svg xmlns:xlink="http://www.w3.org/1999/xlink" width="621.606784pt" height="367.881781pt" viewBox="0 0 621.606784 367.881781" xmlns="http://www.w3.org/2000/svg" version="1.1">
 <metadata>
  <rdf:RDF xmlns:dc="http://purl.org/dc/elements/1.1/" xmlns:cc="http://creativecommons.org/ns#" xmlns:rdf="http://www.w3.org/1999/02/22-rdf-syntax-ns#">
   <cc:Work>
    <dc:type rdf:resource="http://purl.org/dc/dcmitype/StillImage"/>
    <dc:date>2026-06-30T15:35:53.371173</dc:date>
    <dc:format>image/svg+xml</dc:format>
    <dc:creator>
     <cc:Agent>
      <dc:title>Matplotlib v3.10.8, https://matplotlib.org/</dc:title>
     </cc:Agent>
    </dc:creator>
   </cc:Work>
  </rdf:RDF>
 </metadata>
 <defs>
  <style type="text/css">*{stroke-linejoin: round; stroke-linecap: butt}</style>
 </defs>
 <g id="figure_1">
  <g id="patch_1">
   <path d="M 0 367.881781 
L 621.606784 367.881781 
L 621.606784 0 
L 0 0 
z
" style="fill: #ffffff"/>
  </g>
  <g id="axes_1">
   <g id="patch_2">
    <path d="M 82.208125 321.978047 
L 558.023398 321.978047 
L 558.023398 34.698047 
L 82.208125 34.698047 
z
" style="fill: #ffffff"/>
   </g>
   <g id="matplotlib.axis_1">
    <g id="xtick_1">
     <g id="line2d_1">
      <path d="M 82.208125 321.978047 
L 82.208125 34.698047 
" clip-path="url(#p36a1b2e217)" style="fill: none; stroke: #dddddd; stroke-width: 0.7; stroke-linecap: square"/>
     </g>
     <g id="line2d_2">
      <defs>
       <path id="m64b25e1e6f" d="M 0 0 
L 0 3.5 
" style="stroke: #111111; stroke-width: 0.8"/>
      </defs>
      <g>
       <use xlink:href="#m64b25e1e6f" x="82.208125" y="321.978047" style="fill: #111111; stroke: #111111; stroke-width: 0.8"/>
      </g>
     </g>
     <g id="text_1">
      <!-- 0 -->
      <g style="fill: #111111" transform="translate(79.026875 336.576484) scale(0.1 -0.1)">
       <defs>
        <path id="DejaVuSans-30" d="M 2034 4250 
Q 1547 4250 1301 3770 
Q 1056 3291 1056 2328 
Q 1056 1369 1301 889 
Q 1547 409 2034 409 
Q 2525 409 2770 889 
Q 3016 1369 3016 2328 
Q 3016 3291 2770 3770 
Q 2525 4250 2034 4250 
z
M 2034 4750 
Q 2819 4750 3233 4129 
Q 3647 3509 3647 2328 
Q 3647 1150 3233 529 
Q 2819 -91 2034 -91 
Q 1250 -91 836 529 
Q 422 1150 422 2328 
Q 422 3509 836 4129 
Q 1250 4750 2034 4750 
z
" transform="scale(0.015625)"/>
       </defs>
       <use xlink:href="#DejaVuSans-30"/>
      </g>
     </g>
    </g>
    <g id="xtick_2">
     <g id="line2d_3">
      <path d="M 172.839606 321.978047 
L 172.839606 34.698047 
" clip-path="url(#p36a1b2e217)" style="fill: none; stroke: #dddddd; stroke-width: 0.7; stroke-linecap: square"/>
     </g>
     <g id="line2d_4">
      <g>
       <use xlink:href="#m64b25e1e6f" x="172.839606" y="321.978047" style="fill: #111111; stroke: #111111; stroke-width: 0.8"/>
      </g>
     </g>
     <g id="text_2">
      <!-- 20 -->
      <g style="fill: #111111" transform="translate(166.477106 336.576484) scale(0.1 -0.1)">
       <defs>
        <path id="DejaVuSans-32" d="M 1228 531 
L 3431 531 
L 3431 0 
L 469 0 
L 469 531 
Q 828 903 1448 1529 
Q 2069 2156 2228 2338 
Q 2531 2678 2651 2914 
Q 2772 3150 2772 3378 
Q 2772 3750 2511 3984 
Q 2250 4219 1831 4219 
Q 1534 4219 1204 4116 
Q 875 4013 500 3803 
L 500 4441 
Q 881 4594 1212 4672 
Q 1544 4750 1819 4750 
Q 2544 4750 2975 4387 
Q 3406 4025 3406 3419 
Q 3406 3131 3298 2873 
Q 3191 2616 2906 2266 
Q 2828 2175 2409 1742 
Q 1991 1309 1228 531 
z
" transform="scale(0.015625)"/>
       </defs>
       <use xlink:href="#DejaVuSans-32"/>
       <use xlink:href="#DejaVuSans-30" transform="translate(63.623047 0)"/>
      </g>
     </g>
    </g>
    <g id="xtick_3">
     <g id="line2d_5">
      <path d="M 263.471086 321.978047 
L 263.471086 34.698047 
" clip-path="url(#p36a1b2e217)" style="fill: none; stroke: #dddddd; stroke-width: 0.7; stroke-linecap: square"/>
     </g>
     <g id="line2d_6">
      <g>
       <use xlink:href="#m64b25e1e6f" x="263.471086" y="321.978047" style="fill: #111111; stroke: #111111; stroke-width: 0.8"/>
      </g>
     </g>
     <g id="text_3">
      <!-- 40 -->
      <g style="fill: #111111" transform="translate(257.108586 336.576484) scale(0.1 -0.1)">
       <defs>
        <path id="DejaVuSans-34" d="M 2419 4116 
L 825 1625 
L 2419 1625 
L 2419 4116 
z
M 2253 4666 
L 3047 4666 
L 3047 1625 
L 3713 1625 
L 3713 1100 
L 3047 1100 
L 3047 0 
L 2419 0 
L 2419 1100 
L 313 1100 
L 313 1709 
L 2253 4666 
z
" transform="scale(0.015625)"/>
       </defs>
       <use xlink:href="#DejaVuSans-34"/>
       <use xlink:href="#DejaVuSans-30" transform="translate(63.623047 0)"/>
      </g>
     </g>
    </g>
    <g id="xtick_4">
     <g id="line2d_7">
      <path d="M 354.102567 321.978047 
L 354.102567 34.698047 
" clip-path="url(#p36a1b2e217)" style="fill: none; stroke: #dddddd; stroke-width: 0.7; stroke-linecap: square"/>
     </g>
     <g id="line2d_8">
      <g>
       <use xlink:href="#m64b25e1e6f" x="354.102567" y="321.978047" style="fill: #111111; stroke: #111111; stroke-width: 0.8"/>
      </g>
     </g>
     <g id="text_4">
      <!-- 60 -->
      <g style="fill: #111111" transform="translate(347.740067 336.576484) scale(0.1 -0.1)">
       <defs>
        <path id="DejaVuSans-36" d="M 2113 2584 
Q 1688 2584 1439 2293 
Q 1191 2003 1191 1497 
Q 1191 994 1439 701 
Q 1688 409 2113 409 
Q 2538 409 2786 701 
Q 3034 994 3034 1497 
Q 3034 2003 2786 2293 
Q 2538 2584 2113 2584 
z
M 3366 4563 
L 3366 3988 
Q 3128 4100 2886 4159 
Q 2644 4219 2406 4219 
Q 1781 4219 1451 3797 
Q 1122 3375 1075 2522 
Q 1259 2794 1537 2939 
Q 1816 3084 2150 3084 
Q 2853 3084 3261 2657 
Q 3669 2231 3669 1497 
Q 3669 778 3244 343 
Q 2819 -91 2113 -91 
Q 1303 -91 875 529 
Q 447 1150 447 2328 
Q 447 3434 972 4092 
Q 1497 4750 2381 4750 
Q 2619 4750 2861 4703 
Q 3103 4656 3366 4563 
z
" transform="scale(0.015625)"/>
       </defs>
       <use xlink:href="#DejaVuSans-36"/>
       <use xlink:href="#DejaVuSans-30" transform="translate(63.623047 0)"/>
      </g>
     </g>
    </g>
    <g id="xtick_5">
     <g id="line2d_9">
      <path d="M 444.734047 321.978047 
L 444.734047 34.698047 
" clip-path="url(#p36a1b2e217)" style="fill: none; stroke: #dddddd; stroke-width: 0.7; stroke-linecap: square"/>
     </g>
     <g id="line2d_10">
      <g>
       <use xlink:href="#m64b25e1e6f" x="444.734047" y="321.978047" style="fill: #111111; stroke: #111111; stroke-width: 0.8"/>
      </g>
     </g>
     <g id="text_5">
      <!-- 80 -->
      <g style="fill: #111111" transform="translate(438.371547 336.576484) scale(0.1 -0.1)">
       <defs>
        <path id="DejaVuSans-38" d="M 2034 2216 
Q 1584 2216 1326 1975 
Q 1069 1734 1069 1313 
Q 1069 891 1326 650 
Q 1584 409 2034 409 
Q 2484 409 2743 651 
Q 3003 894 3003 1313 
Q 3003 1734 2745 1975 
Q 2488 2216 2034 2216 
z
M 1403 2484 
Q 997 2584 770 2862 
Q 544 3141 544 3541 
Q 544 4100 942 4425 
Q 1341 4750 2034 4750 
Q 2731 4750 3128 4425 
Q 3525 4100 3525 3541 
Q 3525 3141 3298 2862 
Q 3072 2584 2669 2484 
Q 3125 2378 3379 2068 
Q 3634 1759 3634 1313 
Q 3634 634 3220 271 
Q 2806 -91 2034 -91 
Q 1263 -91 848 271 
Q 434 634 434 1313 
Q 434 1759 690 2068 
Q 947 2378 1403 2484 
z
M 1172 3481 
Q 1172 3119 1398 2916 
Q 1625 2713 2034 2713 
Q 2441 2713 2670 2916 
Q 2900 3119 2900 3481 
Q 2900 3844 2670 4047 
Q 2441 4250 2034 4250 
Q 1625 4250 1398 4047 
Q 1172 3844 1172 3481 
z
" transform="scale(0.015625)"/>
       </defs>
       <use xlink:href="#DejaVuSans-38"/>
       <use xlink:href="#DejaVuSans-30" transform="translate(63.623047 0)"/>
      </g>
     </g>
    </g>
    <g id="xtick_6">
     <g id="line2d_11">
      <path d="M 535.365528 321.978047 
L 535.365528 34.698047 
" clip-path="url(#p36a1b2e217)" style="fill: none; stroke: #dddddd; stroke-width: 0.7; stroke-linecap: square"/>
     </g>
     <g id="line2d_12">
      <g>
       <use xlink:href="#m64b25e1e6f" x="535.365528" y="321.978047" style="fill: #111111; stroke: #111111; stroke-width: 0.8"/>
      </g>
     </g>
     <g id="text_6">
      <!-- 100 -->
      <g style="fill: #111111" transform="translate(525.821778 336.576484) scale(0.1 -0.1)">
       <defs>
        <path id="DejaVuSans-31" d="M 794 531 
L 1825 531 
L 1825 4091 
L 703 3866 
L 703 4441 
L 1819 4666 
L 2450 4666 
L 2450 531 
L 3481 531 
L 3481 0 
L 794 0 
L 794 531 
z
" transform="scale(0.015625)"/>
       </defs>
       <use xlink:href="#DejaVuSans-31"/>
       <use xlink:href="#DejaVuSans-30" transform="translate(63.623047 0)"/>
       <use xlink:href="#DejaVuSans-30" transform="translate(127.246094 0)"/>
      </g>
     </g>
    </g>
    <g id="text_7">
     <!-- Task success (%) -->
     <g transform="translate(273.716386 351.014453) scale(0.11 -0.11)">
      <defs>
       <path id="DejaVuSans-54" d="M -19 4666 
L 3928 4666 
L 3928 4134 
L 2272 4134 
L 2272 0 
L 1638 0 
L 1638 4134 
L -19 4134 
L -19 4666 
z
" transform="scale(0.015625)"/>
       <path id="DejaVuSans-61" d="M 2194 1759 
Q 1497 1759 1228 1600 
Q 959 1441 959 1056 
Q 959 750 1161 570 
Q 1363 391 1709 391 
Q 2188 391 2477 730 
Q 2766 1069 2766 1631 
L 2766 1759 
L 2194 1759 
z
M 3341 1997 
L 3341 0 
L 2766 0 
L 2766 531 
Q 2569 213 2275 61 
Q 1981 -91 1556 -91 
Q 1019 -91 701 211 
Q 384 513 384 1019 
Q 384 1609 779 1909 
Q 1175 2209 1959 2209 
L 2766 2209 
L 2766 2266 
Q 2766 2663 2505 2880 
Q 2244 3097 1772 3097 
Q 1472 3097 1187 3025 
Q 903 2953 641 2809 
L 641 3341 
Q 956 3463 1253 3523 
Q 1550 3584 1831 3584 
Q 2591 3584 2966 3190 
Q 3341 2797 3341 1997 
z
" transform="scale(0.015625)"/>
       <path id="DejaVuSans-73" d="M 2834 3397 
L 2834 2853 
Q 2591 2978 2328 3040 
Q 2066 3103 1784 3103 
Q 1356 3103 1142 2972 
Q 928 2841 928 2578 
Q 928 2378 1081 2264 
Q 1234 2150 1697 2047 
L 1894 2003 
Q 2506 1872 2764 1633 
Q 3022 1394 3022 966 
Q 3022 478 2636 193 
Q 2250 -91 1575 -91 
Q 1294 -91 989 -36 
Q 684 19 347 128 
L 347 722 
Q 666 556 975 473 
Q 1284 391 1588 391 
Q 1994 391 2212 530 
Q 2431 669 2431 922 
Q 2431 1156 2273 1281 
Q 2116 1406 1581 1522 
L 1381 1569 
Q 847 1681 609 1914 
Q 372 2147 372 2553 
Q 372 3047 722 3315 
Q 1072 3584 1716 3584 
Q 2034 3584 2315 3537 
Q 2597 3491 2834 3397 
z
" transform="scale(0.015625)"/>
       <path id="DejaVuSans-6b" d="M 581 4863 
L 1159 4863 
L 1159 1991 
L 2875 3500 
L 3609 3500 
L 1753 1863 
L 3688 0 
L 2938 0 
L 1159 1709 
L 1159 0 
L 581 0 
L 581 4863 
z
" transform="scale(0.015625)"/>
       <path id="DejaVuSans-20" transform="scale(0.015625)"/>
       <path id="DejaVuSans-75" d="M 544 1381 
L 544 3500 
L 1119 3500 
L 1119 1403 
Q 1119 906 1312 657 
Q 1506 409 1894 409 
Q 2359 409 2629 706 
Q 2900 1003 2900 1516 
L 2900 3500 
L 3475 3500 
L 3475 0 
L 2900 0 
L 2900 538 
Q 2691 219 2414 64 
Q 2138 -91 1772 -91 
Q 1169 -91 856 284 
Q 544 659 544 1381 
z
M 1991 3584 
L 1991 3584 
z
" transform="scale(0.015625)"/>
       <path id="DejaVuSans-63" d="M 3122 3366 
L 3122 2828 
Q 2878 2963 2633 3030 
Q 2388 3097 2138 3097 
Q 1578 3097 1268 2742 
Q 959 2388 959 1747 
Q 959 1106 1268 751 
Q 1578 397 2138 397 
Q 2388 397 2633 464 
Q 2878 531 3122 666 
L 3122 134 
Q 2881 22 2623 -34 
Q 2366 -91 2075 -91 
Q 1284 -91 818 406 
Q 353 903 353 1747 
Q 353 2603 823 3093 
Q 1294 3584 2113 3584 
Q 2378 3584 2631 3529 
Q 2884 3475 3122 3366 
z
" transform="scale(0.015625)"/>
       <path id="DejaVuSans-65" d="M 3597 1894 
L 3597 1613 
L 953 1613 
Q 991 1019 1311 708 
Q 1631 397 2203 397 
Q 2534 397 2845 478 
Q 3156 559 3463 722 
L 3463 178 
Q 3153 47 2828 -22 
Q 2503 -91 2169 -91 
Q 1331 -91 842 396 
Q 353 884 353 1716 
Q 353 2575 817 3079 
Q 1281 3584 2069 3584 
Q 2775 3584 3186 3129 
Q 3597 2675 3597 1894 
z
M 3022 2063 
Q 3016 2534 2758 2815 
Q 2500 3097 2075 3097 
Q 1594 3097 1305 2825 
Q 1016 2553 972 2059 
L 3022 2063 
z
" transform="scale(0.015625)"/>
       <path id="DejaVuSans-28" d="M 1984 4856 
Q 1566 4138 1362 3434 
Q 1159 2731 1159 2009 
Q 1159 1288 1364 580 
Q 1569 -128 1984 -844 
L 1484 -844 
Q 1016 -109 783 600 
Q 550 1309 550 2009 
Q 550 2706 781 3412 
Q 1013 4119 1484 4856 
L 1984 4856 
z
" transform="scale(0.015625)"/>
       <path id="DejaVuSans-25" d="M 4653 2053 
Q 4381 2053 4226 1822 
Q 4072 1591 4072 1178 
Q 4072 772 4226 539 
Q 4381 306 4653 306 
Q 4919 306 5073 539 
Q 5228 772 5228 1178 
Q 5228 1588 5073 1820 
Q 4919 2053 4653 2053 
z
M 4653 2450 
Q 5147 2450 5437 2106 
Q 5728 1763 5728 1178 
Q 5728 594 5436 251 
Q 5144 -91 4653 -91 
Q 4153 -91 3862 251 
Q 3572 594 3572 1178 
Q 3572 1766 3864 2108 
Q 4156 2450 4653 2450 
z
M 1428 4353 
Q 1159 4353 1004 4120 
Q 850 3888 850 3481 
Q 850 3069 1003 2837 
Q 1156 2606 1428 2606 
Q 1700 2606 1854 2837 
Q 2009 3069 2009 3481 
Q 2009 3884 1853 4118 
Q 1697 4353 1428 4353 
z
M 4250 4750 
L 4750 4750 
L 1831 -91 
L 1331 -91 
L 4250 4750 
z
M 1428 4750 
Q 1922 4750 2215 4408 
Q 2509 4066 2509 3481 
Q 2509 2891 2217 2550 
Q 1925 2209 1428 2209 
Q 931 2209 642 2551 
Q 353 2894 353 3481 
Q 353 4063 643 4406 
Q 934 4750 1428 4750 
z
" transform="scale(0.015625)"/>
       <path id="DejaVuSans-29" d="M 513 4856 
L 1013 4856 
Q 1481 4119 1714 3412 
Q 1947 2706 1947 2009 
Q 1947 1309 1714 600 
Q 1481 -109 1013 -844 
L 513 -844 
Q 928 -128 1133 580 
Q 1338 1288 1338 2009 
Q 1338 2731 1133 3434 
Q 928 4138 513 4856 
z
" transform="scale(0.015625)"/>
      </defs>
      <use xlink:href="#DejaVuSans-54"/>
      <use xlink:href="#DejaVuSans-61" transform="translate(44.583984 0)"/>
      <use xlink:href="#DejaVuSans-73" transform="translate(105.863281 0)"/>
      <use xlink:href="#DejaVuSans-6b" transform="translate(157.962891 0)"/>
      <use xlink:href="#DejaVuSans-20" transform="translate(215.873047 0)"/>
      <use xlink:href="#DejaVuSans-73" transform="translate(247.660156 0)"/>
      <use xlink:href="#DejaVuSans-75" transform="translate(299.759766 0)"/>
      <use xlink:href="#DejaVuSans-63" transform="translate(363.138672 0)"/>
      <use xlink:href="#DejaVuSans-63" transform="translate(418.119141 0)"/>
      <use xlink:href="#DejaVuSans-65" transform="translate(473.099609 0)"/>
      <use xlink:href="#DejaVuSans-73" transform="translate(534.623047 0)"/>
      <use xlink:href="#DejaVuSans-73" transform="translate(586.722656 0)"/>
      <use xlink:href="#DejaVuSans-20" transform="translate(638.822266 0)"/>
      <use xlink:href="#DejaVuSans-28" transform="translate(670.609375 0)"/>
      <use xlink:href="#DejaVuSans-25" transform="translate(709.623047 0)"/>
      <use xlink:href="#DejaVuSans-29" transform="translate(804.642578 0)"/>
     </g>
    </g>
   </g>
   <g id="matplotlib.axis_2">
    <g id="ytick_1">
     <g id="line2d_13">
      <defs>
       <path id="maaedc68fc1" d="M 0 0 
L -3.5 0 
" style="stroke: #111111; stroke-width: 0.8"/>
      </defs>
      <g>
       <use xlink:href="#maaedc68fc1" x="82.208125" y="56.425561" style="fill: #111111; stroke: #111111; stroke-width: 0.8"/>
      </g>
     </g>
     <g id="text_8">
      <!-- Workout -->
      <g style="fill: #111111" transform="translate(35.940469 55.437709) scale(0.095 -0.095)">
       <defs>
        <path id="DejaVuSans-57" d="M 213 4666 
L 850 4666 
L 1831 722 
L 2809 4666 
L 3519 4666 
L 4500 722 
L 5478 4666 
L 6119 4666 
L 4947 0 
L 4153 0 
L 3169 4050 
L 2175 0 
L 1381 0 
L 213 4666 
z
" transform="scale(0.015625)"/>
        <path id="DejaVuSans-6f" d="M 1959 3097 
Q 1497 3097 1228 2736 
Q 959 2375 959 1747 
Q 959 1119 1226 758 
Q 1494 397 1959 397 
Q 2419 397 2687 759 
Q 2956 1122 2956 1747 
Q 2956 2369 2687 2733 
Q 2419 3097 1959 3097 
z
M 1959 3584 
Q 2709 3584 3137 3096 
Q 3566 2609 3566 1747 
Q 3566 888 3137 398 
Q 2709 -91 1959 -91 
Q 1206 -91 779 398 
Q 353 888 353 1747 
Q 353 2609 779 3096 
Q 1206 3584 1959 3584 
z
" transform="scale(0.015625)"/>
        <path id="DejaVuSans-72" d="M 2631 2963 
Q 2534 3019 2420 3045 
Q 2306 3072 2169 3072 
Q 1681 3072 1420 2755 
Q 1159 2438 1159 1844 
L 1159 0 
L 581 0 
L 581 3500 
L 1159 3500 
L 1159 2956 
Q 1341 3275 1631 3429 
Q 1922 3584 2338 3584 
Q 2397 3584 2469 3576 
Q 2541 3569 2628 3553 
L 2631 2963 
z
" transform="scale(0.015625)"/>
        <path id="DejaVuSans-74" d="M 1172 4494 
L 1172 3500 
L 2356 3500 
L 2356 3053 
L 1172 3053 
L 1172 1153 
Q 1172 725 1289 603 
Q 1406 481 1766 481 
L 2356 481 
L 2356 0 
L 1766 0 
Q 1100 0 847 248 
Q 594 497 594 1153 
L 594 3053 
L 172 3053 
L 172 3500 
L 594 3500 
L 594 4494 
L 1172 4494 
z
" transform="scale(0.015625)"/>
       </defs>
       <use xlink:href="#DejaVuSans-57"/>
       <use xlink:href="#DejaVuSans-6f" transform="translate(93.001953 0)"/>
       <use xlink:href="#DejaVuSans-72" transform="translate(154.183594 0)"/>
       <use xlink:href="#DejaVuSans-6b" transform="translate(195.296875 0)"/>
       <use xlink:href="#DejaVuSans-6f" transform="translate(249.582031 0)"/>
       <use xlink:href="#DejaVuSans-75" transform="translate(310.763672 0)"/>
       <use xlink:href="#DejaVuSans-74" transform="translate(374.142578 0)"/>
      </g>
      <!-- adaptation -->
      <g style="fill: #111111" transform="translate(23.759688 66.075631) scale(0.095 -0.095)">
       <defs>
        <path id="DejaVuSans-64" d="M 2906 2969 
L 2906 4863 
L 3481 4863 
L 3481 0 
L 2906 0 
L 2906 525 
Q 2725 213 2448 61 
Q 2172 -91 1784 -91 
Q 1150 -91 751 415 
Q 353 922 353 1747 
Q 353 2572 751 3078 
Q 1150 3584 1784 3584 
Q 2172 3584 2448 3432 
Q 2725 3281 2906 2969 
z
M 947 1747 
Q 947 1113 1208 752 
Q 1469 391 1925 391 
Q 2381 391 2643 752 
Q 2906 1113 2906 1747 
Q 2906 2381 2643 2742 
Q 2381 3103 1925 3103 
Q 1469 3103 1208 2742 
Q 947 2381 947 1747 
z
" transform="scale(0.015625)"/>
        <path id="DejaVuSans-70" d="M 1159 525 
L 1159 -1331 
L 581 -1331 
L 581 3500 
L 1159 3500 
L 1159 2969 
Q 1341 3281 1617 3432 
Q 1894 3584 2278 3584 
Q 2916 3584 3314 3078 
Q 3713 2572 3713 1747 
Q 3713 922 3314 415 
Q 2916 -91 2278 -91 
Q 1894 -91 1617 61 
Q 1341 213 1159 525 
z
M 3116 1747 
Q 3116 2381 2855 2742 
Q 2594 3103 2138 3103 
Q 1681 3103 1420 2742 
Q 1159 2381 1159 1747 
Q 1159 1113 1420 752 
Q 1681 391 2138 391 
Q 2594 391 2855 752 
Q 3116 1113 3116 1747 
z
" transform="scale(0.015625)"/>
        <path id="DejaVuSans-69" d="M 603 3500 
L 1178 3500 
L 1178 0 
L 603 0 
L 603 3500 
z
M 603 4863 
L 1178 4863 
L 1178 4134 
L 603 4134 
L 603 4863 
z
" transform="scale(0.015625)"/>
        <path id="DejaVuSans-6e" d="M 3513 2113 
L 3513 0 
L 2938 0 
L 2938 2094 
Q 2938 2591 2744 2837 
Q 2550 3084 2163 3084 
Q 1697 3084 1428 2787 
Q 1159 2491 1159 1978 
L 1159 0 
L 581 0 
L 581 3500 
L 1159 3500 
L 1159 2956 
Q 1366 3272 1645 3428 
Q 1925 3584 2291 3584 
Q 2894 3584 3203 3211 
Q 3513 2838 3513 2113 
z
" transform="scale(0.015625)"/>
       </defs>
       <use xlink:href="#DejaVuSans-61"/>
       <use xlink:href="#DejaVuSans-64" transform="translate(61.279297 0)"/>
       <use xlink:href="#DejaVuSans-61" transform="translate(124.755859 0)"/>
       <use xlink:href="#DejaVuSans-70" transform="translate(186.035156 0)"/>
       <use xlink:href="#DejaVuSans-74" transform="translate(249.511719 0)"/>
       <use xlink:href="#DejaVuSans-61" transform="translate(288.720703 0)"/>
       <use xlink:href="#DejaVuSans-74" transform="translate(350 0)"/>
       <use xlink:href="#DejaVuSans-69" transform="translate(389.208984 0)"/>
       <use xlink:href="#DejaVuSans-6f" transform="translate(416.992188 0)"/>
       <use xlink:href="#DejaVuSans-6e" transform="translate(478.173828 0)"/>
      </g>
     </g>
    </g>
    <g id="ytick_2">
     <g id="line2d_14">
      <g>
       <use xlink:href="#maaedc68fc1" x="82.208125" y="83.517225" style="fill: #111111; stroke: #111111; stroke-width: 0.8"/>
      </g>
     </g>
     <g id="text_9">
      <!-- Journal -->
      <g style="fill: #111111" transform="translate(42.351484 82.529373) scale(0.095 -0.095)">
       <defs>
        <path id="DejaVuSans-4a" d="M 628 4666 
L 1259 4666 
L 1259 325 
Q 1259 -519 939 -900 
Q 619 -1281 -91 -1281 
L -331 -1281 
L -331 -750 
L -134 -750 
Q 284 -750 456 -515 
Q 628 -281 628 325 
L 628 4666 
z
" transform="scale(0.015625)"/>
        <path id="DejaVuSans-6c" d="M 603 4863 
L 1178 4863 
L 1178 0 
L 603 0 
L 603 4863 
z
" transform="scale(0.015625)"/>
       </defs>
       <use xlink:href="#DejaVuSans-4a"/>
       <use xlink:href="#DejaVuSans-6f" transform="translate(29.492188 0)"/>
       <use xlink:href="#DejaVuSans-75" transform="translate(90.673828 0)"/>
       <use xlink:href="#DejaVuSans-72" transform="translate(154.052734 0)"/>
       <use xlink:href="#DejaVuSans-6e" transform="translate(193.416016 0)"/>
       <use xlink:href="#DejaVuSans-61" transform="translate(256.794922 0)"/>
       <use xlink:href="#DejaVuSans-6c" transform="translate(318.074219 0)"/>
      </g>
      <!-- reflection -->
      <g style="fill: #111111" transform="translate(30.421563 93.167295) scale(0.095 -0.095)">
       <defs>
        <path id="DejaVuSans-66" d="M 2375 4863 
L 2375 4384 
L 1825 4384 
Q 1516 4384 1395 4259 
Q 1275 4134 1275 3809 
L 1275 3500 
L 2222 3500 
L 2222 3053 
L 1275 3053 
L 1275 0 
L 697 0 
L 697 3053 
L 147 3053 
L 147 3500 
L 697 3500 
L 697 3744 
Q 697 4328 969 4595 
Q 1241 4863 1831 4863 
L 2375 4863 
z
" transform="scale(0.015625)"/>
       </defs>
       <use xlink:href="#DejaVuSans-72"/>
       <use xlink:href="#DejaVuSans-65" transform="translate(38.863281 0)"/>
       <use xlink:href="#DejaVuSans-66" transform="translate(100.386719 0)"/>
       <use xlink:href="#DejaVuSans-6c" transform="translate(135.591797 0)"/>
       <use xlink:href="#DejaVuSans-65" transform="translate(163.375 0)"/>
       <use xlink:href="#DejaVuSans-63" transform="translate(224.898438 0)"/>
       <use xlink:href="#DejaVuSans-74" transform="translate(279.878906 0)"/>
       <use xlink:href="#DejaVuSans-69" transform="translate(319.087891 0)"/>
       <use xlink:href="#DejaVuSans-6f" transform="translate(346.871094 0)"/>
       <use xlink:href="#DejaVuSans-6e" transform="translate(408.052734 0)"/>
      </g>
     </g>
    </g>
    <g id="ytick_3">
     <g id="line2d_15">
      <g>
       <use xlink:href="#maaedc68fc1" x="82.208125" y="110.608888" style="fill: #111111; stroke: #111111; stroke-width: 0.8"/>
      </g>
     </g>
     <g id="text_10">
      <!-- Sports -->
      <g style="fill: #111111" transform="translate(44.754688 109.621037) scale(0.095 -0.095)">
       <defs>
        <path id="DejaVuSans-53" d="M 3425 4513 
L 3425 3897 
Q 3066 4069 2747 4153 
Q 2428 4238 2131 4238 
Q 1616 4238 1336 4038 
Q 1056 3838 1056 3469 
Q 1056 3159 1242 3001 
Q 1428 2844 1947 2747 
L 2328 2669 
Q 3034 2534 3370 2195 
Q 3706 1856 3706 1288 
Q 3706 609 3251 259 
Q 2797 -91 1919 -91 
Q 1588 -91 1214 -16 
Q 841 59 441 206 
L 441 856 
Q 825 641 1194 531 
Q 1563 422 1919 422 
Q 2459 422 2753 634 
Q 3047 847 3047 1241 
Q 3047 1584 2836 1778 
Q 2625 1972 2144 2069 
L 1759 2144 
Q 1053 2284 737 2584 
Q 422 2884 422 3419 
Q 422 4038 858 4394 
Q 1294 4750 2059 4750 
Q 2388 4750 2728 4690 
Q 3069 4631 3425 4513 
z
" transform="scale(0.015625)"/>
       </defs>
       <use xlink:href="#DejaVuSans-53"/>
       <use xlink:href="#DejaVuSans-70" transform="translate(63.476562 0)"/>
       <use xlink:href="#DejaVuSans-6f" transform="translate(126.953125 0)"/>
       <use xlink:href="#DejaVuSans-72" transform="translate(188.134766 0)"/>
       <use xlink:href="#DejaVuSans-74" transform="translate(229.248047 0)"/>
       <use xlink:href="#DejaVuSans-73" transform="translate(268.457031 0)"/>
      </g>
      <!-- feedback -->
      <g style="fill: #111111" transform="translate(31.564531 120.258958) scale(0.095 -0.095)">
       <defs>
        <path id="DejaVuSans-62" d="M 3116 1747 
Q 3116 2381 2855 2742 
Q 2594 3103 2138 3103 
Q 1681 3103 1420 2742 
Q 1159 2381 1159 1747 
Q 1159 1113 1420 752 
Q 1681 391 2138 391 
Q 2594 391 2855 752 
Q 3116 1113 3116 1747 
z
M 1159 2969 
Q 1341 3281 1617 3432 
Q 1894 3584 2278 3584 
Q 2916 3584 3314 3078 
Q 3713 2572 3713 1747 
Q 3713 922 3314 415 
Q 2916 -91 2278 -91 
Q 1894 -91 1617 61 
Q 1341 213 1159 525 
L 1159 0 
L 581 0 
L 581 4863 
L 1159 4863 
L 1159 2969 
z
" transform="scale(0.015625)"/>
       </defs>
       <use xlink:href="#DejaVuSans-66"/>
       <use xlink:href="#DejaVuSans-65" transform="translate(35.205078 0)"/>
       <use xlink:href="#DejaVuSans-65" transform="translate(96.728516 0)"/>
       <use xlink:href="#DejaVuSans-64" transform="translate(158.251953 0)"/>
       <use xlink:href="#DejaVuSans-62" transform="translate(221.728516 0)"/>
       <use xlink:href="#DejaVuSans-61" transform="translate(285.205078 0)"/>
       <use xlink:href="#DejaVuSans-63" transform="translate(346.484375 0)"/>
       <use xlink:href="#DejaVuSans-6b" transform="translate(401.464844 0)"/>
      </g>
     </g>
    </g>
    <g id="ytick_4">
     <g id="line2d_16">
      <g>
       <use xlink:href="#maaedc68fc1" x="82.208125" y="137.700552" style="fill: #111111; stroke: #111111; stroke-width: 0.8"/>
      </g>
     </g>
     <g id="text_11">
      <!-- Exercise -->
      <g style="fill: #111111" transform="translate(35.685156 136.7127) scale(0.095 -0.095)">
       <defs>
        <path id="DejaVuSans-45" d="M 628 4666 
L 3578 4666 
L 3578 4134 
L 1259 4134 
L 1259 2753 
L 3481 2753 
L 3481 2222 
L 1259 2222 
L 1259 531 
L 3634 531 
L 3634 0 
L 628 0 
L 628 4666 
z
" transform="scale(0.015625)"/>
        <path id="DejaVuSans-78" d="M 3513 3500 
L 2247 1797 
L 3578 0 
L 2900 0 
L 1881 1375 
L 863 0 
L 184 0 
L 1544 1831 
L 300 3500 
L 978 3500 
L 1906 2253 
L 2834 3500 
L 3513 3500 
z
" transform="scale(0.015625)"/>
       </defs>
       <use xlink:href="#DejaVuSans-45"/>
       <use xlink:href="#DejaVuSans-78" transform="translate(63.183594 0)"/>
       <use xlink:href="#DejaVuSans-65" transform="translate(119.238281 0)"/>
       <use xlink:href="#DejaVuSans-72" transform="translate(180.761719 0)"/>
       <use xlink:href="#DejaVuSans-63" transform="translate(219.625 0)"/>
       <use xlink:href="#DejaVuSans-69" transform="translate(274.605469 0)"/>
       <use xlink:href="#DejaVuSans-73" transform="translate(302.388672 0)"/>
       <use xlink:href="#DejaVuSans-65" transform="translate(354.488281 0)"/>
      </g>
      <!-- substitution -->
      <g style="fill: #111111" transform="translate(18.953281 147.350622) scale(0.095 -0.095)">
       <use xlink:href="#DejaVuSans-73"/>
       <use xlink:href="#DejaVuSans-75" transform="translate(52.099609 0)"/>
       <use xlink:href="#DejaVuSans-62" transform="translate(115.478516 0)"/>
       <use xlink:href="#DejaVuSans-73" transform="translate(178.955078 0)"/>
       <use xlink:href="#DejaVuSans-74" transform="translate(231.054688 0)"/>
       <use xlink:href="#DejaVuSans-69" transform="translate(270.263672 0)"/>
       <use xlink:href="#DejaVuSans-74" transform="translate(298.046875 0)"/>
       <use xlink:href="#DejaVuSans-75" transform="translate(337.255859 0)"/>
       <use xlink:href="#DejaVuSans-74" transform="translate(400.634766 0)"/>
       <use xlink:href="#DejaVuSans-69" transform="translate(439.84375 0)"/>
       <use xlink:href="#DejaVuSans-6f" transform="translate(467.626953 0)"/>
       <use xlink:href="#DejaVuSans-6e" transform="translate(528.808594 0)"/>
      </g>
     </g>
    </g>
    <g id="ytick_5">
     <g id="line2d_17">
      <g>
       <use xlink:href="#maaedc68fc1" x="82.208125" y="164.792215" style="fill: #111111; stroke: #111111; stroke-width: 0.8"/>
      </g>
     </g>
     <g id="text_12">
      <!-- Creator -->
      <g style="fill: #111111" transform="translate(39.773125 163.804364) scale(0.095 -0.095)">
       <defs>
        <path id="DejaVuSans-43" d="M 4122 4306 
L 4122 3641 
Q 3803 3938 3442 4084 
Q 3081 4231 2675 4231 
Q 1875 4231 1450 3742 
Q 1025 3253 1025 2328 
Q 1025 1406 1450 917 
Q 1875 428 2675 428 
Q 3081 428 3442 575 
Q 3803 722 4122 1019 
L 4122 359 
Q 3791 134 3420 21 
Q 3050 -91 2638 -91 
Q 1578 -91 968 557 
Q 359 1206 359 2328 
Q 359 3453 968 4101 
Q 1578 4750 2638 4750 
Q 3056 4750 3426 4639 
Q 3797 4528 4122 4306 
z
" transform="scale(0.015625)"/>
       </defs>
       <use xlink:href="#DejaVuSans-43"/>
       <use xlink:href="#DejaVuSans-72" transform="translate(69.824219 0)"/>
       <use xlink:href="#DejaVuSans-65" transform="translate(108.6875 0)"/>
       <use xlink:href="#DejaVuSans-61" transform="translate(170.210938 0)"/>
       <use xlink:href="#DejaVuSans-74" transform="translate(231.490234 0)"/>
       <use xlink:href="#DejaVuSans-6f" transform="translate(270.699219 0)"/>
       <use xlink:href="#DejaVuSans-72" transform="translate(331.880859 0)"/>
      </g>
      <!-- metadata -->
      <g style="fill: #111111" transform="translate(29.164297 174.442285) scale(0.095 -0.095)">
       <defs>
        <path id="DejaVuSans-6d" d="M 3328 2828 
Q 3544 3216 3844 3400 
Q 4144 3584 4550 3584 
Q 5097 3584 5394 3201 
Q 5691 2819 5691 2113 
L 5691 0 
L 5113 0 
L 5113 2094 
Q 5113 2597 4934 2840 
Q 4756 3084 4391 3084 
Q 3944 3084 3684 2787 
Q 3425 2491 3425 1978 
L 3425 0 
L 2847 0 
L 2847 2094 
Q 2847 2600 2669 2842 
Q 2491 3084 2119 3084 
Q 1678 3084 1418 2786 
Q 1159 2488 1159 1978 
L 1159 0 
L 581 0 
L 581 3500 
L 1159 3500 
L 1159 2956 
Q 1356 3278 1631 3431 
Q 1906 3584 2284 3584 
Q 2666 3584 2933 3390 
Q 3200 3197 3328 2828 
z
" transform="scale(0.015625)"/>
       </defs>
       <use xlink:href="#DejaVuSans-6d"/>
       <use xlink:href="#DejaVuSans-65" transform="translate(97.412109 0)"/>
       <use xlink:href="#DejaVuSans-74" transform="translate(158.935547 0)"/>
       <use xlink:href="#DejaVuSans-61" transform="translate(198.144531 0)"/>
       <use xlink:href="#DejaVuSans-64" transform="translate(259.423828 0)"/>
       <use xlink:href="#DejaVuSans-61" transform="translate(322.900391 0)"/>
       <use xlink:href="#DejaVuSans-74" transform="translate(384.179688 0)"/>
       <use xlink:href="#DejaVuSans-61" transform="translate(423.388672 0)"/>
      </g>
     </g>
    </g>
    <g id="ytick_6">
     <g id="line2d_18">
      <g>
       <use xlink:href="#maaedc68fc1" x="82.208125" y="191.883879" style="fill: #111111; stroke: #111111; stroke-width: 0.8"/>
      </g>
     </g>
     <g id="text_13">
      <!-- Citation -->
      <g style="fill: #111111" transform="translate(38.192266 190.896027) scale(0.095 -0.095)">
       <use xlink:href="#DejaVuSans-43"/>
       <use xlink:href="#DejaVuSans-69" transform="translate(69.824219 0)"/>
       <use xlink:href="#DejaVuSans-74" transform="translate(97.607422 0)"/>
       <use xlink:href="#DejaVuSans-61" transform="translate(136.816406 0)"/>
       <use xlink:href="#DejaVuSans-74" transform="translate(198.095703 0)"/>
       <use xlink:href="#DejaVuSans-69" transform="translate(237.304688 0)"/>
       <use xlink:href="#DejaVuSans-6f" transform="translate(265.087891 0)"/>
       <use xlink:href="#DejaVuSans-6e" transform="translate(326.269531 0)"/>
      </g>
      <!-- extraction -->
      <g style="fill: #111111" transform="translate(27.034219 201.533949) scale(0.095 -0.095)">
       <use xlink:href="#DejaVuSans-65"/>
       <use xlink:href="#DejaVuSans-78" transform="translate(59.773438 0)"/>
       <use xlink:href="#DejaVuSans-74" transform="translate(118.953125 0)"/>
       <use xlink:href="#DejaVuSans-72" transform="translate(158.162109 0)"/>
       <use xlink:href="#DejaVuSans-61" transform="translate(199.275391 0)"/>
       <use xlink:href="#DejaVuSans-63" transform="translate(260.554688 0)"/>
       <use xlink:href="#DejaVuSans-74" transform="translate(315.535156 0)"/>
       <use xlink:href="#DejaVuSans-69" transform="translate(354.744141 0)"/>
       <use xlink:href="#DejaVuSans-6f" transform="translate(382.527344 0)"/>
       <use xlink:href="#DejaVuSans-6e" transform="translate(443.708984 0)"/>
      </g>
     </g>
    </g>
    <g id="ytick_7">
     <g id="line2d_19">
      <g>
       <use xlink:href="#maaedc68fc1" x="82.208125" y="218.975542" style="fill: #111111; stroke: #111111; stroke-width: 0.8"/>
      </g>
     </g>
     <g id="text_14">
      <!-- Project -->
      <g style="fill: #111111" transform="translate(42.709219 217.987691) scale(0.095 -0.095)">
       <defs>
        <path id="DejaVuSans-50" d="M 1259 4147 
L 1259 2394 
L 2053 2394 
Q 2494 2394 2734 2622 
Q 2975 2850 2975 3272 
Q 2975 3691 2734 3919 
Q 2494 4147 2053 4147 
L 1259 4147 
z
M 628 4666 
L 2053 4666 
Q 2838 4666 3239 4311 
Q 3641 3956 3641 3272 
Q 3641 2581 3239 2228 
Q 2838 1875 2053 1875 
L 1259 1875 
L 1259 0 
L 628 0 
L 628 4666 
z
" transform="scale(0.015625)"/>
        <path id="DejaVuSans-6a" d="M 603 3500 
L 1178 3500 
L 1178 -63 
Q 1178 -731 923 -1031 
Q 669 -1331 103 -1331 
L -116 -1331 
L -116 -844 
L 38 -844 
Q 366 -844 484 -692 
Q 603 -541 603 -63 
L 603 3500 
z
M 603 4863 
L 1178 4863 
L 1178 4134 
L 603 4134 
L 603 4863 
z
" transform="scale(0.015625)"/>
       </defs>
       <use xlink:href="#DejaVuSans-50"/>
       <use xlink:href="#DejaVuSans-72" transform="translate(58.552734 0)"/>
       <use xlink:href="#DejaVuSans-6f" transform="translate(97.416016 0)"/>
       <use xlink:href="#DejaVuSans-6a" transform="translate(158.597656 0)"/>
       <use xlink:href="#DejaVuSans-65" transform="translate(186.380859 0)"/>
       <use xlink:href="#DejaVuSans-63" transform="translate(247.904297 0)"/>
       <use xlink:href="#DejaVuSans-74" transform="translate(302.884766 0)"/>
      </g>
      <!-- capture -->
      <g style="fill: #111111" transform="translate(38.849844 228.625612) scale(0.095 -0.095)">
       <use xlink:href="#DejaVuSans-63"/>
       <use xlink:href="#DejaVuSans-61" transform="translate(54.980469 0)"/>
       <use xlink:href="#DejaVuSans-70" transform="translate(116.259766 0)"/>
       <use xlink:href="#DejaVuSans-74" transform="translate(179.736328 0)"/>
       <use xlink:href="#DejaVuSans-75" transform="translate(218.945312 0)"/>
       <use xlink:href="#DejaVuSans-72" transform="translate(282.324219 0)"/>
       <use xlink:href="#DejaVuSans-65" transform="translate(321.1875 0)"/>
      </g>
     </g>
    </g>
    <g id="ytick_8">
     <g id="line2d_20">
      <g>
       <use xlink:href="#maaedc68fc1" x="82.208125" y="246.067206" style="fill: #111111; stroke: #111111; stroke-width: 0.8"/>
      </g>
     </g>
     <g id="text_15">
      <!-- Document -->
      <g style="fill: #111111" transform="translate(25.992188 245.079354) scale(0.095 -0.095)">
       <defs>
        <path id="DejaVuSans-44" d="M 1259 4147 
L 1259 519 
L 2022 519 
Q 2988 519 3436 956 
Q 3884 1394 3884 2338 
Q 3884 3275 3436 3711 
Q 2988 4147 2022 4147 
L 1259 4147 
z
M 628 4666 
L 1925 4666 
Q 3281 4666 3915 4102 
Q 4550 3538 4550 2338 
Q 4550 1131 3912 565 
Q 3275 0 1925 0 
L 628 0 
L 628 4666 
z
" transform="scale(0.015625)"/>
       </defs>
       <use xlink:href="#DejaVuSans-44"/>
       <use xlink:href="#DejaVuSans-6f" transform="translate(77.001953 0)"/>
       <use xlink:href="#DejaVuSans-63" transform="translate(138.183594 0)"/>
       <use xlink:href="#DejaVuSans-75" transform="translate(193.164062 0)"/>
       <use xlink:href="#DejaVuSans-6d" transform="translate(256.542969 0)"/>
       <use xlink:href="#DejaVuSans-65" transform="translate(353.955078 0)"/>
       <use xlink:href="#DejaVuSans-6e" transform="translate(415.478516 0)"/>
       <use xlink:href="#DejaVuSans-74" transform="translate(478.857422 0)"/>
      </g>
      <!-- QA -->
      <g style="fill: #111111" transform="translate(61.23125 255.717276) scale(0.095 -0.095)">
       <defs>
        <path id="DejaVuSans-51" d="M 2522 4238 
Q 1834 4238 1429 3725 
Q 1025 3213 1025 2328 
Q 1025 1447 1429 934 
Q 1834 422 2522 422 
Q 3209 422 3611 934 
Q 4013 1447 4013 2328 
Q 4013 3213 3611 3725 
Q 3209 4238 2522 4238 
z
M 3406 84 
L 4238 -825 
L 3475 -825 
L 2784 -78 
Q 2681 -84 2626 -87 
Q 2572 -91 2522 -91 
Q 1538 -91 948 567 
Q 359 1225 359 2328 
Q 359 3434 948 4092 
Q 1538 4750 2522 4750 
Q 3503 4750 4090 4092 
Q 4678 3434 4678 2328 
Q 4678 1516 4351 937 
Q 4025 359 3406 84 
z
" transform="scale(0.015625)"/>
        <path id="DejaVuSans-41" d="M 2188 4044 
L 1331 1722 
L 3047 1722 
L 2188 4044 
z
M 1831 4666 
L 2547 4666 
L 4325 0 
L 3669 0 
L 3244 1197 
L 1141 1197 
L 716 0 
L 50 0 
L 1831 4666 
z
" transform="scale(0.015625)"/>
       </defs>
       <use xlink:href="#DejaVuSans-51"/>
       <use xlink:href="#DejaVuSans-41" transform="translate(78.710938 0)"/>
      </g>
     </g>
    </g>
    <g id="ytick_9">
     <g id="line2d_21">
      <g>
       <use xlink:href="#maaedc68fc1" x="82.208125" y="273.158869" style="fill: #111111; stroke: #111111; stroke-width: 0.8"/>
      </g>
     </g>
     <g id="text_16">
      <!-- Learning -->
      <g style="fill: #111111" transform="translate(33.963281 272.171018) scale(0.095 -0.095)">
       <defs>
        <path id="DejaVuSans-4c" d="M 628 4666 
L 1259 4666 
L 1259 531 
L 3531 531 
L 3531 0 
L 628 0 
L 628 4666 
z
" transform="scale(0.015625)"/>
        <path id="DejaVuSans-67" d="M 2906 1791 
Q 2906 2416 2648 2759 
Q 2391 3103 1925 3103 
Q 1463 3103 1205 2759 
Q 947 2416 947 1791 
Q 947 1169 1205 825 
Q 1463 481 1925 481 
Q 2391 481 2648 825 
Q 2906 1169 2906 1791 
z
M 3481 434 
Q 3481 -459 3084 -895 
Q 2688 -1331 1869 -1331 
Q 1566 -1331 1297 -1286 
Q 1028 -1241 775 -1147 
L 775 -588 
Q 1028 -725 1275 -790 
Q 1522 -856 1778 -856 
Q 2344 -856 2625 -561 
Q 2906 -266 2906 331 
L 2906 616 
Q 2728 306 2450 153 
Q 2172 0 1784 0 
Q 1141 0 747 490 
Q 353 981 353 1791 
Q 353 2603 747 3093 
Q 1141 3584 1784 3584 
Q 2172 3584 2450 3431 
Q 2728 3278 2906 2969 
L 2906 3500 
L 3481 3500 
L 3481 434 
z
" transform="scale(0.015625)"/>
       </defs>
       <use xlink:href="#DejaVuSans-4c"/>
       <use xlink:href="#DejaVuSans-65" transform="translate(53.962891 0)"/>
       <use xlink:href="#DejaVuSans-61" transform="translate(115.486328 0)"/>
       <use xlink:href="#DejaVuSans-72" transform="translate(176.765625 0)"/>
       <use xlink:href="#DejaVuSans-6e" transform="translate(216.128906 0)"/>
       <use xlink:href="#DejaVuSans-69" transform="translate(279.507812 0)"/>
       <use xlink:href="#DejaVuSans-6e" transform="translate(307.291016 0)"/>
       <use xlink:href="#DejaVuSans-67" transform="translate(370.669922 0)"/>
      </g>
      <!-- explanation -->
      <g style="fill: #111111" transform="translate(19.374844 282.80894) scale(0.095 -0.095)">
       <use xlink:href="#DejaVuSans-65"/>
       <use xlink:href="#DejaVuSans-78" transform="translate(59.773438 0)"/>
       <use xlink:href="#DejaVuSans-70" transform="translate(118.953125 0)"/>
       <use xlink:href="#DejaVuSans-6c" transform="translate(182.429688 0)"/>
       <use xlink:href="#DejaVuSans-61" transform="translate(210.212891 0)"/>
       <use xlink:href="#DejaVuSans-6e" transform="translate(271.492188 0)"/>
       <use xlink:href="#DejaVuSans-61" transform="translate(334.871094 0)"/>
       <use xlink:href="#DejaVuSans-74" transform="translate(396.150391 0)"/>
       <use xlink:href="#DejaVuSans-69" transform="translate(435.359375 0)"/>
       <use xlink:href="#DejaVuSans-6f" transform="translate(463.142578 0)"/>
       <use xlink:href="#DejaVuSans-6e" transform="translate(524.324219 0)"/>
      </g>
     </g>
    </g>
    <g id="ytick_10">
     <g id="line2d_22">
      <g>
       <use xlink:href="#maaedc68fc1" x="82.208125" y="300.250533" style="fill: #111111; stroke: #111111; stroke-width: 0.8"/>
      </g>
     </g>
     <g id="text_17">
      <!-- Content -->
      <g style="fill: #111111" transform="translate(37.426328 299.262681) scale(0.095 -0.095)">
       <use xlink:href="#DejaVuSans-43"/>
       <use xlink:href="#DejaVuSans-6f" transform="translate(69.824219 0)"/>
       <use xlink:href="#DejaVuSans-6e" transform="translate(131.005859 0)"/>
       <use xlink:href="#DejaVuSans-74" transform="translate(194.384766 0)"/>
       <use xlink:href="#DejaVuSans-65" transform="translate(233.59375 0)"/>
       <use xlink:href="#DejaVuSans-6e" transform="translate(295.117188 0)"/>
       <use xlink:href="#DejaVuSans-74" transform="translate(358.496094 0)"/>
      </g>
      <!-- categorization -->
      <g style="fill: #111111" transform="translate(7.2 309.900603) scale(0.095 -0.095)">
       <defs>
        <path id="DejaVuSans-7a" d="M 353 3500 
L 3084 3500 
L 3084 2975 
L 922 459 
L 3084 459 
L 3084 0 
L 275 0 
L 275 525 
L 2438 3041 
L 353 3041 
L 353 3500 
z
" transform="scale(0.015625)"/>
       </defs>
       <use xlink:href="#DejaVuSans-63"/>
       <use xlink:href="#DejaVuSans-61" transform="translate(54.980469 0)"/>
       <use xlink:href="#DejaVuSans-74" transform="translate(116.259766 0)"/>
       <use xlink:href="#DejaVuSans-65" transform="translate(155.46875 0)"/>
       <use xlink:href="#DejaVuSans-67" transform="translate(216.992188 0)"/>
       <use xlink:href="#DejaVuSans-6f" transform="translate(280.46875 0)"/>
       <use xlink:href="#DejaVuSans-72" transform="translate(341.650391 0)"/>
       <use xlink:href="#DejaVuSans-69" transform="translate(382.763672 0)"/>
       <use xlink:href="#DejaVuSans-7a" transform="translate(410.546875 0)"/>
       <use xlink:href="#DejaVuSans-61" transform="translate(463.037109 0)"/>
       <use xlink:href="#DejaVuSans-74" transform="translate(524.316406 0)"/>
       <use xlink:href="#DejaVuSans-69" transform="translate(563.525391 0)"/>
       <use xlink:href="#DejaVuSans-6f" transform="translate(591.308594 0)"/>
       <use xlink:href="#DejaVuSans-6e" transform="translate(652.490234 0)"/>
      </g>
     </g>
    </g>
   </g>
   <g id="patch_3">
    <path d="M 82.208125 56.425561 
L 354.102567 56.425561 
L 354.102567 65.094893 
L 82.208125 65.094893 
z
" clip-path="url(#p36a1b2e217)" style="fill: url(#he3ce33c1e0); stroke: #222222; stroke-width: 0.75; stroke-linejoin: miter"/>
   </g>
   <g id="patch_4">
    <path d="M 82.208125 83.517225 
L 535.365528 83.517225 
L 535.365528 92.186557 
L 82.208125 92.186557 
z
" clip-path="url(#p36a1b2e217)" style="fill: url(#he3ce33c1e0); stroke: #222222; stroke-width: 0.75; stroke-linejoin: miter"/>
   </g>
   <g id="patch_5">
    <path d="M 82.208125 110.608888 
L 172.839606 110.608888 
L 172.839606 119.27822 
L 82.208125 119.27822 
z
" clip-path="url(#p36a1b2e217)" style="fill: url(#he3ce33c1e0); stroke: #222222; stroke-width: 0.75; stroke-linejoin: miter"/>
   </g>
   <g id="patch_6">
    <path d="M 82.208125 137.700552 
L 444.734047 137.700552 
L 444.734047 146.369884 
L 82.208125 146.369884 
z
" clip-path="url(#p36a1b2e217)" style="fill: url(#he3ce33c1e0); stroke: #222222; stroke-width: 0.75; stroke-linejoin: miter"/>
   </g>
   <g id="patch_7">
    <path d="M 82.208125 164.792215 
L 535.365528 164.792215 
L 535.365528 173.461547 
L 82.208125 173.461547 
z
" clip-path="url(#p36a1b2e217)" style="fill: url(#he3ce33c1e0); stroke: #222222; stroke-width: 0.75; stroke-linejoin: miter"/>
   </g>
   <g id="patch_8">
    <path d="M 82.208125 191.883879 
L 535.365528 191.883879 
L 535.365528 200.553211 
L 82.208125 200.553211 
z
" clip-path="url(#p36a1b2e217)" style="fill: url(#he3ce33c1e0); stroke: #222222; stroke-width: 0.75; stroke-linejoin: miter"/>
   </g>
   <g id="patch_9">
    <path d="M 82.208125 218.975542 
L 399.418307 218.975542 
L 399.418307 227.644874 
L 82.208125 227.644874 
z
" clip-path="url(#p36a1b2e217)" style="fill: url(#he3ce33c1e0); stroke: #222222; stroke-width: 0.75; stroke-linejoin: miter"/>
   </g>
   <g id="patch_10">
    <path d="M 82.208125 246.067206 
L 444.734047 246.067206 
L 444.734047 254.736538 
L 82.208125 254.736538 
z
" clip-path="url(#p36a1b2e217)" style="fill: url(#he3ce33c1e0); stroke: #222222; stroke-width: 0.75; stroke-linejoin: miter"/>
   </g>
   <g id="patch_11">
    <path d="M 82.208125 273.158869 
L 535.365528 273.158869 
L 535.365528 281.828202 
L 82.208125 281.828202 
z
" clip-path="url(#p36a1b2e217)" style="fill: url(#he3ce33c1e0); stroke: #222222; stroke-width: 0.75; stroke-linejoin: miter"/>
   </g>
   <g id="patch_12">
    <path d="M 82.208125 300.250533 
L 444.734047 300.250533 
L 444.734047 308.919865 
L 82.208125 308.919865 
z
" clip-path="url(#p36a1b2e217)" style="fill: url(#he3ce33c1e0); stroke: #222222; stroke-width: 0.75; stroke-linejoin: miter"/>
   </g>
   <g id="patch_13">
    <path d="M 82.208125 47.756229 
L 535.365528 47.756229 
L 535.365528 56.425561 
L 82.208125 56.425561 
z
" clip-path="url(#p36a1b2e217)" style="fill: #4a4a4a; stroke: #222222; stroke-width: 0.75; stroke-linejoin: miter"/>
   </g>
   <g id="patch_14">
    <path d="M 82.208125 74.847892 
L 535.365528 74.847892 
L 535.365528 83.517225 
L 82.208125 83.517225 
z
" clip-path="url(#p36a1b2e217)" style="fill: #4a4a4a; stroke: #222222; stroke-width: 0.75; stroke-linejoin: miter"/>
   </g>
   <g id="patch_15">
    <path d="M 82.208125 101.939556 
L 535.365528 101.939556 
L 535.365528 110.608888 
L 82.208125 110.608888 
z
" clip-path="url(#p36a1b2e217)" style="fill: #4a4a4a; stroke: #222222; stroke-width: 0.75; stroke-linejoin: miter"/>
   </g>
   <g id="patch_16">
    <path d="M 82.208125 129.031219 
L 535.365528 129.031219 
L 535.365528 137.700552 
L 82.208125 137.700552 
z
" clip-path="url(#p36a1b2e217)" style="fill: #4a4a4a; stroke: #222222; stroke-width: 0.75; stroke-linejoin: miter"/>
   </g>
   <g id="patch_17">
    <path d="M 82.208125 156.122883 
L 535.365528 156.122883 
L 535.365528 164.792215 
L 82.208125 164.792215 
z
" clip-path="url(#p36a1b2e217)" style="fill: #4a4a4a; stroke: #222222; stroke-width: 0.75; stroke-linejoin: miter"/>
   </g>
   <g id="patch_18">
    <path d="M 82.208125 183.214546 
L 535.365528 183.214546 
L 535.365528 191.883879 
L 82.208125 191.883879 
z
" clip-path="url(#p36a1b2e217)" style="fill: #4a4a4a; stroke: #222222; stroke-width: 0.75; stroke-linejoin: miter"/>
   </g>
   <g id="patch_19">
    <path d="M 82.208125 210.30621 
L 490.049787 210.30621 
L 490.049787 218.975542 
L 82.208125 218.975542 
z
" clip-path="url(#p36a1b2e217)" style="fill: #4a4a4a; stroke: #222222; stroke-width: 0.75; stroke-linejoin: miter"/>
   </g>
   <g id="patch_20">
    <path d="M 82.208125 237.397873 
L 535.365528 237.397873 
L 535.365528 246.067206 
L 82.208125 246.067206 
z
" clip-path="url(#p36a1b2e217)" style="fill: #4a4a4a; stroke: #222222; stroke-width: 0.75; stroke-linejoin: miter"/>
   </g>
   <g id="patch_21">
    <path d="M 82.208125 264.489537 
L 520.260281 264.489537 
L 520.260281 273.158869 
L 82.208125 273.158869 
z
" clip-path="url(#p36a1b2e217)" style="fill: #4a4a4a; stroke: #222222; stroke-width: 0.75; stroke-linejoin: miter"/>
   </g>
   <g id="patch_22">
    <path d="M 82.208125 291.5812 
L 535.365528 291.5812 
L 535.365528 300.250533 
L 82.208125 300.250533 
z
" clip-path="url(#p36a1b2e217)" style="fill: #4a4a4a; stroke: #222222; stroke-width: 0.75; stroke-linejoin: miter"/>
   </g>
   <g id="LineCollection_1">
    <path d="M 354.102567 60.760227 
L 354.102567 60.760227 
" clip-path="url(#p36a1b2e217)" style="fill: none; stroke: #222222; stroke-width: 0.8"/>
    <path d="M 535.365528 87.851891 
L 535.365528 87.851891 
" clip-path="url(#p36a1b2e217)" style="fill: none; stroke: #222222; stroke-width: 0.8"/>
    <path d="M 172.839606 114.943554 
L 172.839606 114.943554 
" clip-path="url(#p36a1b2e217)" style="fill: none; stroke: #222222; stroke-width: 0.8"/>
    <path d="M 444.734047 142.035218 
L 444.734047 142.035218 
" clip-path="url(#p36a1b2e217)" style="fill: none; stroke: #222222; stroke-width: 0.8"/>
    <path d="M 535.365528 169.126881 
L 535.365528 169.126881 
" clip-path="url(#p36a1b2e217)" style="fill: none; stroke: #222222; stroke-width: 0.8"/>
    <path d="M 535.365528 196.218545 
L 535.365528 196.218545 
" clip-path="url(#p36a1b2e217)" style="fill: none; stroke: #222222; stroke-width: 0.8"/>
    <path d="M 399.418307 223.310208 
L 399.418307 223.310208 
" clip-path="url(#p36a1b2e217)" style="fill: none; stroke: #222222; stroke-width: 0.8"/>
    <path d="M 444.734047 250.401872 
L 444.734047 250.401872 
" clip-path="url(#p36a1b2e217)" style="fill: none; stroke: #222222; stroke-width: 0.8"/>
    <path d="M 535.365528 277.493535 
L 535.365528 277.493535 
" clip-path="url(#p36a1b2e217)" style="fill: none; stroke: #222222; stroke-width: 0.8"/>
    <path d="M 444.734047 304.585199 
L 444.734047 304.585199 
" clip-path="url(#p36a1b2e217)" style="fill: none; stroke: #222222; stroke-width: 0.8"/>
   </g>
   <g id="line2d_23">
    <defs>
     <path id="m2db422df17" d="M 0 2.5 
L 0 -2.5 
" style="stroke: #222222"/>
    </defs>
    <g clip-path="url(#p36a1b2e217)">
     <use xlink:href="#m2db422df17" x="354.102567" y="60.760227" style="fill: #1f77b4; stroke: #222222"/>
     <use xlink:href="#m2db422df17" x="535.365528" y="87.851891" style="fill: #1f77b4; stroke: #222222"/>
     <use xlink:href="#m2db422df17" x="172.839606" y="114.943554" style="fill: #1f77b4; stroke: #222222"/>
     <use xlink:href="#m2db422df17" x="444.734047" y="142.035218" style="fill: #1f77b4; stroke: #222222"/>
     <use xlink:href="#m2db422df17" x="535.365528" y="169.126881" style="fill: #1f77b4; stroke: #222222"/>
     <use xlink:href="#m2db422df17" x="535.365528" y="196.218545" style="fill: #1f77b4; stroke: #222222"/>
     <use xlink:href="#m2db422df17" x="399.418307" y="223.310208" style="fill: #1f77b4; stroke: #222222"/>
     <use xlink:href="#m2db422df17" x="444.734047" y="250.401872" style="fill: #1f77b4; stroke: #222222"/>
     <use xlink:href="#m2db422df17" x="535.365528" y="277.493535" style="fill: #1f77b4; stroke: #222222"/>
     <use xlink:href="#m2db422df17" x="444.734047" y="304.585199" style="fill: #1f77b4; stroke: #222222"/>
    </g>
   </g>
   <g id="line2d_24">
    <g clip-path="url(#p36a1b2e217)">
     <use xlink:href="#m2db422df17" x="354.102567" y="60.760227" style="fill: #1f77b4; stroke: #222222"/>
     <use xlink:href="#m2db422df17" x="535.365528" y="87.851891" style="fill: #1f77b4; stroke: #222222"/>
     <use xlink:href="#m2db422df17" x="172.839606" y="114.943554" style="fill: #1f77b4; stroke: #222222"/>
     <use xlink:href="#m2db422df17" x="444.734047" y="142.035218" style="fill: #1f77b4; stroke: #222222"/>
     <use xlink:href="#m2db422df17" x="535.365528" y="169.126881" style="fill: #1f77b4; stroke: #222222"/>
     <use xlink:href="#m2db422df17" x="535.365528" y="196.218545" style="fill: #1f77b4; stroke: #222222"/>
     <use xlink:href="#m2db422df17" x="399.418307" y="223.310208" style="fill: #1f77b4; stroke: #222222"/>
     <use xlink:href="#m2db422df17" x="444.734047" y="250.401872" style="fill: #1f77b4; stroke: #222222"/>
     <use xlink:href="#m2db422df17" x="535.365528" y="277.493535" style="fill: #1f77b4; stroke: #222222"/>
     <use xlink:href="#m2db422df17" x="444.734047" y="304.585199" style="fill: #1f77b4; stroke: #222222"/>
    </g>
   </g>
   <g id="LineCollection_2">
    <path d="M 535.365528 52.090895 
L 535.365528 52.090895 
" clip-path="url(#p36a1b2e217)" style="fill: none; stroke: #222222; stroke-width: 0.8"/>
    <path d="M 535.365528 79.182558 
L 535.365528 79.182558 
" clip-path="url(#p36a1b2e217)" style="fill: none; stroke: #222222; stroke-width: 0.8"/>
    <path d="M 535.365528 106.274222 
L 535.365528 106.274222 
" clip-path="url(#p36a1b2e217)" style="fill: none; stroke: #222222; stroke-width: 0.8"/>
    <path d="M 535.365528 133.365885 
L 535.365528 133.365885 
" clip-path="url(#p36a1b2e217)" style="fill: none; stroke: #222222; stroke-width: 0.8"/>
    <path d="M 535.365528 160.457549 
L 535.365528 160.457549 
" clip-path="url(#p36a1b2e217)" style="fill: none; stroke: #222222; stroke-width: 0.8"/>
    <path d="M 535.365528 187.549212 
L 535.365528 187.549212 
" clip-path="url(#p36a1b2e217)" style="fill: none; stroke: #222222; stroke-width: 0.8"/>
    <path d="M 490.049787 214.640876 
L 490.049787 214.640876 
" clip-path="url(#p36a1b2e217)" style="fill: none; stroke: #222222; stroke-width: 0.8"/>
    <path d="M 535.365528 241.73254 
L 535.365528 241.73254 
" clip-path="url(#p36a1b2e217)" style="fill: none; stroke: #222222; stroke-width: 0.8"/>
    <path d="M 494.097226 268.824203 
L 546.423336 268.824203 
" clip-path="url(#p36a1b2e217)" style="fill: none; stroke: #222222; stroke-width: 0.8"/>
    <path d="M 535.365528 295.915867 
L 535.365528 295.915867 
" clip-path="url(#p36a1b2e217)" style="fill: none; stroke: #222222; stroke-width: 0.8"/>
   </g>
   <g id="line2d_25">
    <g clip-path="url(#p36a1b2e217)">
     <use xlink:href="#m2db422df17" x="535.365528" y="52.090895" style="fill: #1f77b4; stroke: #222222"/>
     <use xlink:href="#m2db422df17" x="535.365528" y="79.182558" style="fill: #1f77b4; stroke: #222222"/>
     <use xlink:href="#m2db422df17" x="535.365528" y="106.274222" style="fill: #1f77b4; stroke: #222222"/>
     <use xlink:href="#m2db422df17" x="535.365528" y="133.365885" style="fill: #1f77b4; stroke: #222222"/>
     <use xlink:href="#m2db422df17" x="535.365528" y="160.457549" style="fill: #1f77b4; stroke: #222222"/>
     <use xlink:href="#m2db422df17" x="535.365528" y="187.549212" style="fill: #1f77b4; stroke: #222222"/>
     <use xlink:href="#m2db422df17" x="490.049787" y="214.640876" style="fill: #1f77b4; stroke: #222222"/>
     <use xlink:href="#m2db422df17" x="535.365528" y="241.73254" style="fill: #1f77b4; stroke: #222222"/>
     <use xlink:href="#m2db422df17" x="494.097226" y="268.824203" style="fill: #1f77b4; stroke: #222222"/>
     <use xlink:href="#m2db422df17" x="535.365528" y="295.915867" style="fill: #1f77b4; stroke: #222222"/>
    </g>
   </g>
   <g id="line2d_26">
    <g clip-path="url(#p36a1b2e217)">
     <use xlink:href="#m2db422df17" x="535.365528" y="52.090895" style="fill: #1f77b4; stroke: #222222"/>
     <use xlink:href="#m2db422df17" x="535.365528" y="79.182558" style="fill: #1f77b4; stroke: #222222"/>
     <use xlink:href="#m2db422df17" x="535.365528" y="106.274222" style="fill: #1f77b4; stroke: #222222"/>
     <use xlink:href="#m2db422df17" x="535.365528" y="133.365885" style="fill: #1f77b4; stroke: #222222"/>
     <use xlink:href="#m2db422df17" x="535.365528" y="160.457549" style="fill: #1f77b4; stroke: #222222"/>
     <use xlink:href="#m2db422df17" x="535.365528" y="187.549212" style="fill: #1f77b4; stroke: #222222"/>
     <use xlink:href="#m2db422df17" x="490.049787" y="214.640876" style="fill: #1f77b4; stroke: #222222"/>
     <use xlink:href="#m2db422df17" x="535.365528" y="241.73254" style="fill: #1f77b4; stroke: #222222"/>
     <use xlink:href="#m2db422df17" x="546.423336" y="268.824203" style="fill: #1f77b4; stroke: #222222"/>
     <use xlink:href="#m2db422df17" x="535.365528" y="295.915867" style="fill: #1f77b4; stroke: #222222"/>
    </g>
   </g>
   <g id="patch_23">
    <path d="M 82.208125 321.978047 
L 82.208125 34.698047 
" style="fill: none; stroke: #111111; stroke-width: 0.8; stroke-linejoin: miter; stroke-linecap: square"/>
   </g>
   <g id="patch_24">
    <path d="M 82.208125 321.978047 
L 558.023398 321.978047 
" style="fill: none; stroke: #111111; stroke-width: 0.8; stroke-linejoin: miter; stroke-linecap: square"/>
   </g>
   <g id="text_18">
    <!-- FMFBench Real App Experiences: mean task success across 3 live runs -->
    <g style="fill: #111111" transform="translate(98.176308 16.698047) scale(0.125 -0.125)">
     <defs>
      <path id="DejaVuSans-46" d="M 628 4666 
L 3309 4666 
L 3309 4134 
L 1259 4134 
L 1259 2759 
L 3109 2759 
L 3109 2228 
L 1259 2228 
L 1259 0 
L 628 0 
L 628 4666 
z
" transform="scale(0.015625)"/>
      <path id="DejaVuSans-4d" d="M 628 4666 
L 1569 4666 
L 2759 1491 
L 3956 4666 
L 4897 4666 
L 4897 0 
L 4281 0 
L 4281 4097 
L 3078 897 
L 2444 897 
L 1241 4097 
L 1241 0 
L 628 0 
L 628 4666 
z
" transform="scale(0.015625)"/>
      <path id="DejaVuSans-42" d="M 1259 2228 
L 1259 519 
L 2272 519 
Q 2781 519 3026 730 
Q 3272 941 3272 1375 
Q 3272 1813 3026 2020 
Q 2781 2228 2272 2228 
L 1259 2228 
z
M 1259 4147 
L 1259 2741 
L 2194 2741 
Q 2656 2741 2882 2914 
Q 3109 3088 3109 3444 
Q 3109 3797 2882 3972 
Q 2656 4147 2194 4147 
L 1259 4147 
z
M 628 4666 
L 2241 4666 
Q 2963 4666 3353 4366 
Q 3744 4066 3744 3513 
Q 3744 3084 3544 2831 
Q 3344 2578 2956 2516 
Q 3422 2416 3680 2098 
Q 3938 1781 3938 1306 
Q 3938 681 3513 340 
Q 3088 0 2303 0 
L 628 0 
L 628 4666 
z
" transform="scale(0.015625)"/>
      <path id="DejaVuSans-68" d="M 3513 2113 
L 3513 0 
L 2938 0 
L 2938 2094 
Q 2938 2591 2744 2837 
Q 2550 3084 2163 3084 
Q 1697 3084 1428 2787 
Q 1159 2491 1159 1978 
L 1159 0 
L 581 0 
L 581 4863 
L 1159 4863 
L 1159 2956 
Q 1366 3272 1645 3428 
Q 1925 3584 2291 3584 
Q 2894 3584 3203 3211 
Q 3513 2838 3513 2113 
z
" transform="scale(0.015625)"/>
      <path id="DejaVuSans-52" d="M 2841 2188 
Q 3044 2119 3236 1894 
Q 3428 1669 3622 1275 
L 4263 0 
L 3584 0 
L 2988 1197 
Q 2756 1666 2539 1819 
Q 2322 1972 1947 1972 
L 1259 1972 
L 1259 0 
L 628 0 
L 628 4666 
L 2053 4666 
Q 2853 4666 3247 4331 
Q 3641 3997 3641 3322 
Q 3641 2881 3436 2590 
Q 3231 2300 2841 2188 
z
M 1259 4147 
L 1259 2491 
L 2053 2491 
Q 2509 2491 2742 2702 
Q 2975 2913 2975 3322 
Q 2975 3731 2742 3939 
Q 2509 4147 2053 4147 
L 1259 4147 
z
" transform="scale(0.015625)"/>
      <path id="DejaVuSans-3a" d="M 750 794 
L 1409 794 
L 1409 0 
L 750 0 
L 750 794 
z
M 750 3309 
L 1409 3309 
L 1409 2516 
L 750 2516 
L 750 3309 
z
" transform="scale(0.015625)"/>
      <path id="DejaVuSans-33" d="M 2597 2516 
Q 3050 2419 3304 2112 
Q 3559 1806 3559 1356 
Q 3559 666 3084 287 
Q 2609 -91 1734 -91 
Q 1441 -91 1130 -33 
Q 819 25 488 141 
L 488 750 
Q 750 597 1062 519 
Q 1375 441 1716 441 
Q 2309 441 2620 675 
Q 2931 909 2931 1356 
Q 2931 1769 2642 2001 
Q 2353 2234 1838 2234 
L 1294 2234 
L 1294 2753 
L 1863 2753 
Q 2328 2753 2575 2939 
Q 2822 3125 2822 3475 
Q 2822 3834 2567 4026 
Q 2313 4219 1838 4219 
Q 1578 4219 1281 4162 
Q 984 4106 628 3988 
L 628 4550 
Q 988 4650 1302 4700 
Q 1616 4750 1894 4750 
Q 2613 4750 3031 4423 
Q 3450 4097 3450 3541 
Q 3450 3153 3228 2886 
Q 3006 2619 2597 2516 
z
" transform="scale(0.015625)"/>
      <path id="DejaVuSans-76" d="M 191 3500 
L 800 3500 
L 1894 563 
L 2988 3500 
L 3597 3500 
L 2284 0 
L 1503 0 
L 191 3500 
z
" transform="scale(0.015625)"/>
     </defs>
     <use xlink:href="#DejaVuSans-46"/>
     <use xlink:href="#DejaVuSans-4d" transform="translate(57.519531 0)"/>
     <use xlink:href="#DejaVuSans-46" transform="translate(143.798828 0)"/>
     <use xlink:href="#DejaVuSans-42" transform="translate(201.318359 0)"/>
     <use xlink:href="#DejaVuSans-65" transform="translate(269.921875 0)"/>
     <use xlink:href="#DejaVuSans-6e" transform="translate(331.445312 0)"/>
     <use xlink:href="#DejaVuSans-63" transform="translate(394.824219 0)"/>
     <use xlink:href="#DejaVuSans-68" transform="translate(449.804688 0)"/>
     <use xlink:href="#DejaVuSans-20" transform="translate(513.183594 0)"/>
     <use xlink:href="#DejaVuSans-52" transform="translate(544.970703 0)"/>
     <use xlink:href="#DejaVuSans-65" transform="translate(609.953125 0)"/>
     <use xlink:href="#DejaVuSans-61" transform="translate(671.476562 0)"/>
     <use xlink:href="#DejaVuSans-6c" transform="translate(732.755859 0)"/>
     <use xlink:href="#DejaVuSans-20" transform="translate(760.539062 0)"/>
     <use xlink:href="#DejaVuSans-41" transform="translate(792.326172 0)"/>
     <use xlink:href="#DejaVuSans-70" transform="translate(860.734375 0)"/>
     <use xlink:href="#DejaVuSans-70" transform="translate(924.210938 0)"/>
     <use xlink:href="#DejaVuSans-20" transform="translate(987.6875 0)"/>
     <use xlink:href="#DejaVuSans-45" transform="translate(1019.474609 0)"/>
     <use xlink:href="#DejaVuSans-78" transform="translate(1082.658203 0)"/>
     <use xlink:href="#DejaVuSans-70" transform="translate(1141.837891 0)"/>
     <use xlink:href="#DejaVuSans-65" transform="translate(1205.314453 0)"/>
     <use xlink:href="#DejaVuSans-72" transform="translate(1266.837891 0)"/>
     <use xlink:href="#DejaVuSans-69" transform="translate(1307.951172 0)"/>
     <use xlink:href="#DejaVuSans-65" transform="translate(1335.734375 0)"/>
     <use xlink:href="#DejaVuSans-6e" transform="translate(1397.257812 0)"/>
     <use xlink:href="#DejaVuSans-63" transform="translate(1460.636719 0)"/>
     <use xlink:href="#DejaVuSans-65" transform="translate(1515.617188 0)"/>
     <use xlink:href="#DejaVuSans-73" transform="translate(1577.140625 0)"/>
     <use xlink:href="#DejaVuSans-3a" transform="translate(1629.240234 0)"/>
     <use xlink:href="#DejaVuSans-20" transform="translate(1662.931641 0)"/>
     <use xlink:href="#DejaVuSans-6d" transform="translate(1694.71875 0)"/>
     <use xlink:href="#DejaVuSans-65" transform="translate(1792.130859 0)"/>
     <use xlink:href="#DejaVuSans-61" transform="translate(1853.654297 0)"/>
     <use xlink:href="#DejaVuSans-6e" transform="translate(1914.933594 0)"/>
     <use xlink:href="#DejaVuSans-20" transform="translate(1978.3125 0)"/>
     <use xlink:href="#DejaVuSans-74" transform="translate(2010.099609 0)"/>
     <use xlink:href="#DejaVuSans-61" transform="translate(2049.308594 0)"/>
     <use xlink:href="#DejaVuSans-73" transform="translate(2110.587891 0)"/>
     <use xlink:href="#DejaVuSans-6b" transform="translate(2162.6875 0)"/>
     <use xlink:href="#DejaVuSans-20" transform="translate(2220.597656 0)"/>
     <use xlink:href="#DejaVuSans-73" transform="translate(2252.384766 0)"/>
     <use xlink:href="#DejaVuSans-75" transform="translate(2304.484375 0)"/>
     <use xlink:href="#DejaVuSans-63" transform="translate(2367.863281 0)"/>
     <use xlink:href="#DejaVuSans-63" transform="translate(2422.84375 0)"/>
     <use xlink:href="#DejaVuSans-65" transform="translate(2477.824219 0)"/>
     <use xlink:href="#DejaVuSans-73" transform="translate(2539.347656 0)"/>
     <use xlink:href="#DejaVuSans-73" transform="translate(2591.447266 0)"/>
     <use xlink:href="#DejaVuSans-20" transform="translate(2643.546875 0)"/>
     <use xlink:href="#DejaVuSans-61" transform="translate(2675.333984 0)"/>
     <use xlink:href="#DejaVuSans-63" transform="translate(2736.613281 0)"/>
     <use xlink:href="#DejaVuSans-72" transform="translate(2791.59375 0)"/>
     <use xlink:href="#DejaVuSans-6f" transform="translate(2830.457031 0)"/>
     <use xlink:href="#DejaVuSans-73" transform="translate(2891.638672 0)"/>
     <use xlink:href="#DejaVuSans-73" transform="translate(2943.738281 0)"/>
     <use xlink:href="#DejaVuSans-20" transform="translate(2995.837891 0)"/>
     <use xlink:href="#DejaVuSans-33" transform="translate(3027.625 0)"/>
     <use xlink:href="#DejaVuSans-20" transform="translate(3091.248047 0)"/>
     <use xlink:href="#DejaVuSans-6c" transform="translate(3123.035156 0)"/>
     <use xlink:href="#DejaVuSans-69" transform="translate(3150.818359 0)"/>
     <use xlink:href="#DejaVuSans-76" transform="translate(3178.601562 0)"/>
     <use xlink:href="#DejaVuSans-65" transform="translate(3237.78125 0)"/>
     <use xlink:href="#DejaVuSans-20" transform="translate(3299.304688 0)"/>
     <use xlink:href="#DejaVuSans-72" transform="translate(3331.091797 0)"/>
     <use xlink:href="#DejaVuSans-75" transform="translate(3372.205078 0)"/>
     <use xlink:href="#DejaVuSans-6e" transform="translate(3435.583984 0)"/>
     <use xlink:href="#DejaVuSans-73" transform="translate(3498.962891 0)"/>
    </g>
   </g>
   <g id="legend_1">
    <g id="patch_25">
     <path d="M 187.521738 21.299544 
L 204.621738 21.299544 
L 204.621738 14.649544 
L 187.521738 14.649544 
z
" style="fill: url(#he3ce33c1e0); stroke: #222222; stroke-width: 0.75; stroke-linejoin: miter"/>
    </g>
    <g id="text_19">
     <!-- System: 79.0% +/- 0.0 -->
     <g style="fill: #111111" transform="translate(212.221738 21.299544) scale(0.095 -0.095)">
      <defs>
       <path id="DejaVuSans-79" d="M 2059 -325 
Q 1816 -950 1584 -1140 
Q 1353 -1331 966 -1331 
L 506 -1331 
L 506 -850 
L 844 -850 
Q 1081 -850 1212 -737 
Q 1344 -625 1503 -206 
L 1606 56 
L 191 3500 
L 800 3500 
L 1894 763 
L 2988 3500 
L 3597 3500 
L 2059 -325 
z
" transform="scale(0.015625)"/>
       <path id="DejaVuSans-37" d="M 525 4666 
L 3525 4666 
L 3525 4397 
L 1831 0 
L 1172 0 
L 2766 4134 
L 525 4134 
L 525 4666 
z
" transform="scale(0.015625)"/>
       <path id="DejaVuSans-39" d="M 703 97 
L 703 672 
Q 941 559 1184 500 
Q 1428 441 1663 441 
Q 2288 441 2617 861 
Q 2947 1281 2994 2138 
Q 2813 1869 2534 1725 
Q 2256 1581 1919 1581 
Q 1219 1581 811 2004 
Q 403 2428 403 3163 
Q 403 3881 828 4315 
Q 1253 4750 1959 4750 
Q 2769 4750 3195 4129 
Q 3622 3509 3622 2328 
Q 3622 1225 3098 567 
Q 2575 -91 1691 -91 
Q 1453 -91 1209 -44 
Q 966 3 703 97 
z
M 1959 2075 
Q 2384 2075 2632 2365 
Q 2881 2656 2881 3163 
Q 2881 3666 2632 3958 
Q 2384 4250 1959 4250 
Q 1534 4250 1286 3958 
Q 1038 3666 1038 3163 
Q 1038 2656 1286 2365 
Q 1534 2075 1959 2075 
z
" transform="scale(0.015625)"/>
       <path id="DejaVuSans-2e" d="M 684 794 
L 1344 794 
L 1344 0 
L 684 0 
L 684 794 
z
" transform="scale(0.015625)"/>
       <path id="DejaVuSans-2b" d="M 2944 4013 
L 2944 2272 
L 4684 2272 
L 4684 1741 
L 2944 1741 
L 2944 0 
L 2419 0 
L 2419 1741 
L 678 1741 
L 678 2272 
L 2419 2272 
L 2419 4013 
L 2944 4013 
z
" transform="scale(0.015625)"/>
       <path id="DejaVuSans-2f" d="M 1625 4666 
L 2156 4666 
L 531 -594 
L 0 -594 
L 1625 4666 
z
" transform="scale(0.015625)"/>
       <path id="DejaVuSans-2d" d="M 313 2009 
L 1997 2009 
L 1997 1497 
L 313 1497 
L 313 2009 
z
" transform="scale(0.015625)"/>
      </defs>
      <use xlink:href="#DejaVuSans-53"/>
      <use xlink:href="#DejaVuSans-79" transform="translate(63.476562 0)"/>
      <use xlink:href="#DejaVuSans-73" transform="translate(122.65625 0)"/>
      <use xlink:href="#DejaVuSans-74" transform="translate(174.755859 0)"/>
      <use xlink:href="#DejaVuSans-65" transform="translate(213.964844 0)"/>
      <use xlink:href="#DejaVuSans-6d" transform="translate(275.488281 0)"/>
      <use xlink:href="#DejaVuSans-3a" transform="translate(372.900391 0)"/>
      <use xlink:href="#DejaVuSans-20" transform="translate(406.591797 0)"/>
      <use xlink:href="#DejaVuSans-37" transform="translate(438.378906 0)"/>
      <use xlink:href="#DejaVuSans-39" transform="translate(502.001953 0)"/>
      <use xlink:href="#DejaVuSans-2e" transform="translate(565.625 0)"/>
      <use xlink:href="#DejaVuSans-30" transform="translate(597.412109 0)"/>
      <use xlink:href="#DejaVuSans-25" transform="translate(661.035156 0)"/>
      <use xlink:href="#DejaVuSans-20" transform="translate(756.054688 0)"/>
      <use xlink:href="#DejaVuSans-2b" transform="translate(787.841797 0)"/>
      <use xlink:href="#DejaVuSans-2f" transform="translate(871.630859 0)"/>
      <use xlink:href="#DejaVuSans-2d" transform="translate(905.322266 0)"/>
      <use xlink:href="#DejaVuSans-20" transform="translate(941.40625 0)"/>
      <use xlink:href="#DejaVuSans-30" transform="translate(973.193359 0)"/>
      <use xlink:href="#DejaVuSans-2e" transform="translate(1036.816406 0)"/>
      <use xlink:href="#DejaVuSans-30" transform="translate(1068.603516 0)"/>
     </g>
    </g>
    <g id="patch_26">
     <path d="M 336.881035 21.299544 
L 353.981035 21.299544 
L 353.981035 14.649544 
L 336.881035 14.649544 
z
" style="fill: #4a4a4a; stroke: #222222; stroke-width: 0.75; stroke-linejoin: miter"/>
    </g>
    <g id="text_20">
     <!-- PCC: 98.7% +/- 0.6 -->
     <g style="fill: #111111" transform="translate(361.581035 21.299544) scale(0.095 -0.095)">
      <use xlink:href="#DejaVuSans-50"/>
      <use xlink:href="#DejaVuSans-43" transform="translate(60.302734 0)"/>
      <use xlink:href="#DejaVuSans-43" transform="translate(130.126953 0)"/>
      <use xlink:href="#DejaVuSans-3a" transform="translate(199.951172 0)"/>
      <use xlink:href="#DejaVuSans-20" transform="translate(233.642578 0)"/>
      <use xlink:href="#DejaVuSans-39" transform="translate(265.429688 0)"/>
      <use xlink:href="#DejaVuSans-38" transform="translate(329.052734 0)"/>
      <use xlink:href="#DejaVuSans-2e" transform="translate(392.675781 0)"/>
      <use xlink:href="#DejaVuSans-37" transform="translate(424.462891 0)"/>
      <use xlink:href="#DejaVuSans-25" transform="translate(488.085938 0)"/>
      <use xlink:href="#DejaVuSans-20" transform="translate(583.105469 0)"/>
      <use xlink:href="#DejaVuSans-2b" transform="translate(614.892578 0)"/>
      <use xlink:href="#DejaVuSans-2f" transform="translate(698.681641 0)"/>
      <use xlink:href="#DejaVuSans-2d" transform="translate(732.373047 0)"/>
      <use xlink:href="#DejaVuSans-20" transform="translate(768.457031 0)"/>
      <use xlink:href="#DejaVuSans-30" transform="translate(800.244141 0)"/>
      <use xlink:href="#DejaVuSans-2e" transform="translate(863.867188 0)"/>
      <use xlink:href="#DejaVuSans-36" transform="translate(895.654297 0)"/>
     </g>
    </g>
   </g>
  </g>
  <g id="text_21">
   <!-- Execution failures count as failed tasks. Error bars show sample SD across live repetitions. Rule-based graders; PCC-as-judge excluded. -->
   <g style="fill: #595959" transform="translate(38.383034 358.914047) scale(0.085 -0.085)">
    <defs>
     <path id="DejaVuSans-77" d="M 269 3500 
L 844 3500 
L 1563 769 
L 2278 3500 
L 2956 3500 
L 3675 769 
L 4391 3500 
L 4966 3500 
L 4050 0 
L 3372 0 
L 2619 2869 
L 1863 0 
L 1184 0 
L 269 3500 
z
" transform="scale(0.015625)"/>
     <path id="DejaVuSans-3b" d="M 750 3309 
L 1409 3309 
L 1409 2516 
L 750 2516 
L 750 3309 
z
M 750 794 
L 1409 794 
L 1409 256 
L 897 -744 
L 494 -744 
L 750 256 
L 750 794 
z
" transform="scale(0.015625)"/>
    </defs>
    <use xlink:href="#DejaVuSans-45"/>
    <use xlink:href="#DejaVuSans-78" transform="translate(63.183594 0)"/>
    <use xlink:href="#DejaVuSans-65" transform="translate(119.238281 0)"/>
    <use xlink:href="#DejaVuSans-63" transform="translate(180.761719 0)"/>
    <use xlink:href="#DejaVuSans-75" transform="translate(235.742188 0)"/>
    <use xlink:href="#DejaVuSans-74" transform="translate(299.121094 0)"/>
    <use xlink:href="#DejaVuSans-69" transform="translate(338.330078 0)"/>
    <use xlink:href="#DejaVuSans-6f" transform="translate(366.113281 0)"/>
    <use xlink:href="#DejaVuSans-6e" transform="translate(427.294922 0)"/>
    <use xlink:href="#DejaVuSans-20" transform="translate(490.673828 0)"/>
    <use xlink:href="#DejaVuSans-66" transform="translate(522.460938 0)"/>
    <use xlink:href="#DejaVuSans-61" transform="translate(557.666016 0)"/>
    <use xlink:href="#DejaVuSans-69" transform="translate(618.945312 0)"/>
    <use xlink:href="#DejaVuSans-6c" transform="translate(646.728516 0)"/>
    <use xlink:href="#DejaVuSans-75" transform="translate(674.511719 0)"/>
    <use xlink:href="#DejaVuSans-72" transform="translate(737.890625 0)"/>
    <use xlink:href="#DejaVuSans-65" transform="translate(776.753906 0)"/>
    <use xlink:href="#DejaVuSans-73" transform="translate(838.277344 0)"/>
    <use xlink:href="#DejaVuSans-20" transform="translate(890.376953 0)"/>
    <use xlink:href="#DejaVuSans-63" transform="translate(922.164062 0)"/>
    <use xlink:href="#DejaVuSans-6f" transform="translate(977.144531 0)"/>
    <use xlink:href="#DejaVuSans-75" transform="translate(1038.326172 0)"/>
    <use xlink:href="#DejaVuSans-6e" transform="translate(1101.705078 0)"/>
    <use xlink:href="#DejaVuSans-74" transform="translate(1165.083984 0)"/>
    <use xlink:href="#DejaVuSans-20" transform="translate(1204.292969 0)"/>
    <use xlink:href="#DejaVuSans-61" transform="translate(1236.080078 0)"/>
    <use xlink:href="#DejaVuSans-73" transform="translate(1297.359375 0)"/>
    <use xlink:href="#DejaVuSans-20" transform="translate(1349.458984 0)"/>
    <use xlink:href="#DejaVuSans-66" transform="translate(1381.246094 0)"/>
    <use xlink:href="#DejaVuSans-61" transform="translate(1416.451172 0)"/>
    <use xlink:href="#DejaVuSans-69" transform="translate(1477.730469 0)"/>
    <use xlink:href="#DejaVuSans-6c" transform="translate(1505.513672 0)"/>
    <use xlink:href="#DejaVuSans-65" transform="translate(1533.296875 0)"/>
    <use xlink:href="#DejaVuSans-64" transform="translate(1594.820312 0)"/>
    <use xlink:href="#DejaVuSans-20" transform="translate(1658.296875 0)"/>
    <use xlink:href="#DejaVuSans-74" transform="translate(1690.083984 0)"/>
    <use xlink:href="#DejaVuSans-61" transform="translate(1729.292969 0)"/>
    <use xlink:href="#DejaVuSans-73" transform="translate(1790.572266 0)"/>
    <use xlink:href="#DejaVuSans-6b" transform="translate(1842.671875 0)"/>
    <use xlink:href="#DejaVuSans-73" transform="translate(1900.582031 0)"/>
    <use xlink:href="#DejaVuSans-2e" transform="translate(1952.681641 0)"/>
    <use xlink:href="#DejaVuSans-20" transform="translate(1984.46875 0)"/>
    <use xlink:href="#DejaVuSans-45" transform="translate(2016.255859 0)"/>
    <use xlink:href="#DejaVuSans-72" transform="translate(2079.439453 0)"/>
    <use xlink:href="#DejaVuSans-72" transform="translate(2118.802734 0)"/>
    <use xlink:href="#DejaVuSans-6f" transform="translate(2157.666016 0)"/>
    <use xlink:href="#DejaVuSans-72" transform="translate(2218.847656 0)"/>
    <use xlink:href="#DejaVuSans-20" transform="translate(2259.960938 0)"/>
    <use xlink:href="#DejaVuSans-62" transform="translate(2291.748047 0)"/>
    <use xlink:href="#DejaVuSans-61" transform="translate(2355.224609 0)"/>
    <use xlink:href="#DejaVuSans-72" transform="translate(2416.503906 0)"/>
    <use xlink:href="#DejaVuSans-73" transform="translate(2457.617188 0)"/>
    <use xlink:href="#DejaVuSans-20" transform="translate(2509.716797 0)"/>
    <use xlink:href="#DejaVuSans-73" transform="translate(2541.503906 0)"/>
    <use xlink:href="#DejaVuSans-68" transform="translate(2593.603516 0)"/>
    <use xlink:href="#DejaVuSans-6f" transform="translate(2656.982422 0)"/>
    <use xlink:href="#DejaVuSans-77" transform="translate(2718.164062 0)"/>
    <use xlink:href="#DejaVuSans-20" transform="translate(2799.951172 0)"/>
    <use xlink:href="#DejaVuSans-73" transform="translate(2831.738281 0)"/>
    <use xlink:href="#DejaVuSans-61" transform="translate(2883.837891 0)"/>
    <use xlink:href="#DejaVuSans-6d" transform="translate(2945.117188 0)"/>
    <use xlink:href="#DejaVuSans-70" transform="translate(3042.529297 0)"/>
    <use xlink:href="#DejaVuSans-6c" transform="translate(3106.005859 0)"/>
    <use xlink:href="#DejaVuSans-65" transform="translate(3133.789062 0)"/>
    <use xlink:href="#DejaVuSans-20" transform="translate(3195.3125 0)"/>
    <use xlink:href="#DejaVuSans-53" transform="translate(3227.099609 0)"/>
    <use xlink:href="#DejaVuSans-44" transform="translate(3290.576172 0)"/>
    <use xlink:href="#DejaVuSans-20" transform="translate(3367.578125 0)"/>
    <use xlink:href="#DejaVuSans-61" transform="translate(3399.365234 0)"/>
    <use xlink:href="#DejaVuSans-63" transform="translate(3460.644531 0)"/>
    <use xlink:href="#DejaVuSans-72" transform="translate(3515.625 0)"/>
    <use xlink:href="#DejaVuSans-6f" transform="translate(3554.488281 0)"/>
    <use xlink:href="#DejaVuSans-73" transform="translate(3615.669922 0)"/>
    <use xlink:href="#DejaVuSans-73" transform="translate(3667.769531 0)"/>
    <use xlink:href="#DejaVuSans-20" transform="translate(3719.869141 0)"/>
    <use xlink:href="#DejaVuSans-6c" transform="translate(3751.65625 0)"/>
    <use xlink:href="#DejaVuSans-69" transform="translate(3779.439453 0)"/>
    <use xlink:href="#DejaVuSans-76" transform="translate(3807.222656 0)"/>
    <use xlink:href="#DejaVuSans-65" transform="translate(3866.402344 0)"/>
    <use xlink:href="#DejaVuSans-20" transform="translate(3927.925781 0)"/>
    <use xlink:href="#DejaVuSans-72" transform="translate(3959.712891 0)"/>
    <use xlink:href="#DejaVuSans-65" transform="translate(3998.576172 0)"/>
    <use xlink:href="#DejaVuSans-70" transform="translate(4060.099609 0)"/>
    <use xlink:href="#DejaVuSans-65" transform="translate(4123.576172 0)"/>
    <use xlink:href="#DejaVuSans-74" transform="translate(4185.099609 0)"/>
    <use xlink:href="#DejaVuSans-69" transform="translate(4224.308594 0)"/>
    <use xlink:href="#DejaVuSans-74" transform="translate(4252.091797 0)"/>
    <use xlink:href="#DejaVuSans-69" transform="translate(4291.300781 0)"/>
    <use xlink:href="#DejaVuSans-6f" transform="translate(4319.083984 0)"/>
    <use xlink:href="#DejaVuSans-6e" transform="translate(4380.265625 0)"/>
    <use xlink:href="#DejaVuSans-73" transform="translate(4443.644531 0)"/>
    <use xlink:href="#DejaVuSans-2e" transform="translate(4495.744141 0)"/>
    <use xlink:href="#DejaVuSans-20" transform="translate(4527.53125 0)"/>
    <use xlink:href="#DejaVuSans-52" transform="translate(4559.318359 0)"/>
    <use xlink:href="#DejaVuSans-75" transform="translate(4624.300781 0)"/>
    <use xlink:href="#DejaVuSans-6c" transform="translate(4687.679688 0)"/>
    <use xlink:href="#DejaVuSans-65" transform="translate(4715.462891 0)"/>
    <use xlink:href="#DejaVuSans-2d" transform="translate(4776.986328 0)"/>
    <use xlink:href="#DejaVuSans-62" transform="translate(4813.070312 0)"/>
    <use xlink:href="#DejaVuSans-61" transform="translate(4876.546875 0)"/>
    <use xlink:href="#DejaVuSans-73" transform="translate(4937.826172 0)"/>
    <use xlink:href="#DejaVuSans-65" transform="translate(4989.925781 0)"/>
    <use xlink:href="#DejaVuSans-64" transform="translate(5051.449219 0)"/>
    <use xlink:href="#DejaVuSans-20" transform="translate(5114.925781 0)"/>
    <use xlink:href="#DejaVuSans-67" transform="translate(5146.712891 0)"/>
    <use xlink:href="#DejaVuSans-72" transform="translate(5210.189453 0)"/>
    <use xlink:href="#DejaVuSans-61" transform="translate(5251.302734 0)"/>
    <use xlink:href="#DejaVuSans-64" transform="translate(5312.582031 0)"/>
    <use xlink:href="#DejaVuSans-65" transform="translate(5376.058594 0)"/>
    <use xlink:href="#DejaVuSans-72" transform="translate(5437.582031 0)"/>
    <use xlink:href="#DejaVuSans-73" transform="translate(5478.695312 0)"/>
    <use xlink:href="#DejaVuSans-3b" transform="translate(5530.794922 0)"/>
    <use xlink:href="#DejaVuSans-20" transform="translate(5564.486328 0)"/>
    <use xlink:href="#DejaVuSans-50" transform="translate(5596.273438 0)"/>
    <use xlink:href="#DejaVuSans-43" transform="translate(5656.576172 0)"/>
    <use xlink:href="#DejaVuSans-43" transform="translate(5726.400391 0)"/>
    <use xlink:href="#DejaVuSans-2d" transform="translate(5796.224609 0)"/>
    <use xlink:href="#DejaVuSans-61" transform="translate(5832.308594 0)"/>
    <use xlink:href="#DejaVuSans-73" transform="translate(5893.587891 0)"/>
    <use xlink:href="#DejaVuSans-2d" transform="translate(5945.6875 0)"/>
    <use xlink:href="#DejaVuSans-6a" transform="translate(5981.771484 0)"/>
    <use xlink:href="#DejaVuSans-75" transform="translate(6009.554688 0)"/>
    <use xlink:href="#DejaVuSans-64" transform="translate(6072.933594 0)"/>
    <use xlink:href="#DejaVuSans-67" transform="translate(6136.410156 0)"/>
    <use xlink:href="#DejaVuSans-65" transform="translate(6199.886719 0)"/>
    <use xlink:href="#DejaVuSans-20" transform="translate(6261.410156 0)"/>
    <use xlink:href="#DejaVuSans-65" transform="translate(6293.197266 0)"/>
    <use xlink:href="#DejaVuSans-78" transform="translate(6352.970703 0)"/>
    <use xlink:href="#DejaVuSans-63" transform="translate(6410.400391 0)"/>
    <use xlink:href="#DejaVuSans-6c" transform="translate(6465.380859 0)"/>
    <use xlink:href="#DejaVuSans-75" transform="translate(6493.164062 0)"/>
    <use xlink:href="#DejaVuSans-64" transform="translate(6556.542969 0)"/>
    <use xlink:href="#DejaVuSans-65" transform="translate(6620.019531 0)"/>
    <use xlink:href="#DejaVuSans-64" transform="translate(6681.542969 0)"/>
    <use xlink:href="#DejaVuSans-2e" transform="translate(6745.019531 0)"/>
   </g>
  </g>
 </g>
 <defs>
  <clipPath id="p36a1b2e217">
   <rect x="82.208125" y="34.698047" width="475.815273" height="287.28"/>
  </clipPath>
 </defs>
 <defs>
  <pattern id="he3ce33c1e0" patternUnits="userSpaceOnUse" x="0" y="0" width="72" height="72">
   <rect x="0" y="0" width="73" height="73" fill="#f2f2f2"/>
   <path d="M -36 36 
L 36 -36 
M -33 39 
L 39 -33 
M -30 42 
L 42 -30 
M -27 45 
L 45 -27 
M -24 48 
L 48 -24 
M -21 51 
L 51 -21 
M -18 54 
L 54 -18 
M -15 57 
L 57 -15 
M -12 60 
L 60 -12 
M -9 63 
L 63 -9 
M -6 66 
L 66 -6 
M -3 69 
L 69 -3 
M 0 72 
L 72 0 
M 3 75 
L 75 3 
M 6 78 
L 78 6 
M 9 81 
L 81 9 
M 12 84 
L 84 12 
M 15 87 
L 87 15 
M 18 90 
L 90 18 
M 21 93 
L 93 21 
M 24 96 
L 96 24 
M 27 99 
L 99 27 
M 30 102 
L 102 30 
M 33 105 
L 105 33 
M 36 108 
L 108 36 
" style="fill: #222222; stroke: #222222; stroke-width: 1.0; stroke-linecap: butt; stroke-linejoin: miter"/>
  </pattern>
 </defs>
</svg>
