<?xml version="1.0" encoding="utf-8" standalone="no"?>
<!DOCTYPE svg PUBLIC "-//W3C//DTD SVG 1.1//EN"
  "http://www.w3.org/Graphics/SVG/1.1/DTD/svg11.dtd">
<svg xmlns:xlink="http://www.w3.org/1999/xlink" width="612pt" height="486pt" viewBox="0 0 612 486" xmlns="http://www.w3.org/2000/svg" version="1.1">
 <metadata>
  <rdf:RDF xmlns:dc="http://purl.org/dc/elements/1.1/" xmlns:cc="http://creativecommons.org/ns#" xmlns:rdf="http://www.w3.org/1999/02/22-rdf-syntax-ns#">
   <cc:Work>
    <dc:type rdf:resource="http://purl.org/dc/dcmitype/StillImage"/>
    <dc:date>2026-06-30T15:21:49.144805</dc:date>
    <dc:format>image/svg+xml</dc:format>
    <dc:creator>
     <cc:Agent>
      <dc:title>Matplotlib v3.10.8, https://matplotlib.org/</dc:title>
     </cc:Agent>
    </dc:creator>
   </cc:Work>
  </rdf:RDF>
 </metadata>
 <defs>
  <style type="text/css">*{stroke-linejoin: round; stroke-linecap: butt}</style>
 </defs>
 <g id="figure_1">
  <g id="patch_1">
   <path d="M 0 486 
L 612 486 
L 612 0 
L 0 0 
z
" style="fill: #ffffff"/>
  </g>
  <g id="axes_1">
   <g id="patch_2">
    <path d="M 116.28 417.96 
L 599.76 417.96 
L 599.76 87.48 
L 116.28 87.48 
z
" style="fill: #ffffff"/>
   </g>
   <g id="matplotlib.axis_1">
    <g id="xtick_1">
     <g id="line2d_1">
      <path d="M 116.28 417.96 
L 116.28 87.48 
" clip-path="url(#p311f57bc36)" style="fill: none; stroke: #e0e0e0; stroke-width: 0.8; stroke-linecap: square"/>
     </g>
     <g id="line2d_2">
      <defs>
       <path id="m929bf6faff" d="M 0 0 
L 0 3.5 
" style="stroke: #000000; stroke-width: 0.8"/>
      </defs>
      <g>
       <use xlink:href="#m929bf6faff" x="116.28" y="417.96" style="stroke: #000000; stroke-width: 0.8"/>
      </g>
     </g>
     <g id="text_1">
      <text style="font-size: 9.5px; font-family: 'DejaVu Sans'; text-anchor: middle" x="116.28" y="432.178516" transform="rotate(-0 116.28 432.178516)">0</text>
     </g>
    </g>
    <g id="xtick_2">
     <g id="line2d_3">
      <path d="M 208.371429 417.96 
L 208.371429 87.48 
" clip-path="url(#p311f57bc36)" style="fill: none; stroke: #e0e0e0; stroke-width: 0.8; stroke-linecap: square"/>
     </g>
     <g id="line2d_4">
      <g>
       <use xlink:href="#m929bf6faff" x="208.371429" y="417.96" style="stroke: #000000; stroke-width: 0.8"/>
      </g>
     </g>
     <g id="text_2">
      <text style="font-size: 9.5px; font-family: 'DejaVu Sans'; text-anchor: middle" x="208.371429" y="432.178516" transform="rotate(-0 208.371429 432.178516)">20</text>
     </g>
    </g>
    <g id="xtick_3">
     <g id="line2d_5">
      <path d="M 300.462857 417.96 
L 300.462857 87.48 
" clip-path="url(#p311f57bc36)" style="fill: none; stroke: #e0e0e0; stroke-width: 0.8; stroke-linecap: square"/>
     </g>
     <g id="line2d_6">
      <g>
       <use xlink:href="#m929bf6faff" x="300.462857" y="417.96" style="stroke: #000000; stroke-width: 0.8"/>
      </g>
     </g>
     <g id="text_3">
      <text style="font-size: 9.5px; font-family: 'DejaVu Sans'; text-anchor: middle" x="300.462857" y="432.178516" transform="rotate(-0 300.462857 432.178516)">40</text>
     </g>
    </g>
    <g id="xtick_4">
     <g id="line2d_7">
      <path d="M 392.554286 417.96 
L 392.554286 87.48 
" clip-path="url(#p311f57bc36)" style="fill: none; stroke: #e0e0e0; stroke-width: 0.8; stroke-linecap: square"/>
     </g>
     <g id="line2d_8">
      <g>
       <use xlink:href="#m929bf6faff" x="392.554286" y="417.96" style="stroke: #000000; stroke-width: 0.8"/>
      </g>
     </g>
     <g id="text_4">
      <text style="font-size: 9.5px; font-family: 'DejaVu Sans'; text-anchor: middle" x="392.554286" y="432.178516" transform="rotate(-0 392.554286 432.178516)">60</text>
     </g>
    </g>
    <g id="xtick_5">
     <g id="line2d_9">
      <path d="M 484.645714 417.96 
L 484.645714 87.48 
" clip-path="url(#p311f57bc36)" style="fill: none; stroke: #e0e0e0; stroke-width: 0.8; stroke-linecap: square"/>
     </g>
     <g id="line2d_10">
      <g>
       <use xlink:href="#m929bf6faff" x="484.645714" y="417.96" style="stroke: #000000; stroke-width: 0.8"/>
      </g>
     </g>
     <g id="text_5">
      <text style="font-size: 9.5px; font-family: 'DejaVu Sans'; text-anchor: middle" x="484.645714" y="432.178516" transform="rotate(-0 484.645714 432.178516)">80</text>
     </g>
    </g>
    <g id="xtick_6">
     <g id="line2d_11">
      <path d="M 576.737143 417.96 
L 576.737143 87.48 
" clip-path="url(#p311f57bc36)" style="fill: none; stroke: #e0e0e0; stroke-width: 0.8; stroke-linecap: square"/>
     </g>
     <g id="line2d_12">
      <g>
       <use xlink:href="#m929bf6faff" x="576.737143" y="417.96" style="stroke: #000000; stroke-width: 0.8"/>
      </g>
     </g>
     <g id="text_6">
      <text style="font-size: 9.5px; font-family: 'DejaVu Sans'; text-anchor: middle" x="576.737143" y="432.178516" transform="rotate(-0 576.737143 432.178516)">100</text>
     </g>
    </g>
    <g id="text_7">
     <text style="font-size: 11px; font-family: 'DejaVu Sans'; text-anchor: middle" x="358.02" y="446.5125" transform="rotate(-0 358.02 446.5125)">Mean end-to-end task success across 3 runs (%)</text>
    </g>
   </g>
   <g id="matplotlib.axis_2">
    <g id="ytick_1">
     <g id="line2d_13">
      <defs>
       <path id="m48840d7779" d="M 0 0 
L -3.5 0 
" style="stroke: #000000; stroke-width: 0.8"/>
      </defs>
      <g>
       <use xlink:href="#m48840d7779" x="116.28" y="113.054335" style="stroke: #000000; stroke-width: 0.8"/>
      </g>
     </g>
     <g id="text_8">
      <text style="font-size: 9.5px; font-family: 'DejaVu Sans'" transform="translate(70.012344 112.066484)">Workout</text>
      <text style="font-size: 9.5px; font-family: 'DejaVu Sans'" transform="translate(57.831563 122.704405)">adaptation</text>
     </g>
    </g>
    <g id="ytick_2">
     <g id="line2d_14">
      <g>
       <use xlink:href="#m48840d7779" x="116.28" y="144.09115" style="stroke: #000000; stroke-width: 0.8"/>
      </g>
     </g>
     <g id="text_9">
      <text style="font-size: 9.5px; font-family: 'DejaVu Sans'" transform="translate(76.423359 143.103298)">Journal</text>
      <text style="font-size: 9.5px; font-family: 'DejaVu Sans'" transform="translate(64.493437 153.74122)">reflection</text>
     </g>
    </g>
    <g id="ytick_3">
     <g id="line2d_15">
      <g>
       <use xlink:href="#m48840d7779" x="116.28" y="175.127964" style="stroke: #000000; stroke-width: 0.8"/>
      </g>
     </g>
     <g id="text_10">
      <text style="font-size: 9.5px; font-family: 'DejaVu Sans'" transform="translate(78.826562 174.140112)">Sports</text>
      <text style="font-size: 9.5px; font-family: 'DejaVu Sans'" transform="translate(65.636406 184.778034)">feedback</text>
     </g>
    </g>
    <g id="ytick_4">
     <g id="line2d_16">
      <g>
       <use xlink:href="#m48840d7779" x="116.28" y="206.164778" style="stroke: #000000; stroke-width: 0.8"/>
      </g>
     </g>
     <g id="text_11">
      <text style="font-size: 9.5px; font-family: 'DejaVu Sans'" transform="translate(69.757031 205.176927)">Exercise</text>
      <text style="font-size: 9.5px; font-family: 'DejaVu Sans'" transform="translate(53.025156 215.814849)">substitution</text>
     </g>
    </g>
    <g id="ytick_5">
     <g id="line2d_17">
      <g>
       <use xlink:href="#m48840d7779" x="116.28" y="237.201593" style="stroke: #000000; stroke-width: 0.8"/>
      </g>
     </g>
     <g id="text_12">
      <text style="font-size: 9.5px; font-family: 'DejaVu Sans'" transform="translate(73.845 236.213741)">Creator</text>
      <text style="font-size: 9.5px; font-family: 'DejaVu Sans'" transform="translate(63.236172 246.851663)">metadata</text>
     </g>
    </g>
    <g id="ytick_6">
     <g id="line2d_18">
      <g>
       <use xlink:href="#m48840d7779" x="116.28" y="268.238407" style="stroke: #000000; stroke-width: 0.8"/>
      </g>
     </g>
     <g id="text_13">
      <text style="font-size: 9.5px; font-family: 'DejaVu Sans'" transform="translate(72.264141 267.250556)">Citation</text>
      <text style="font-size: 9.5px; font-family: 'DejaVu Sans'" transform="translate(61.106094 277.888478)">extraction</text>
     </g>
    </g>
    <g id="ytick_7">
     <g id="line2d_19">
      <g>
       <use xlink:href="#m48840d7779" x="116.28" y="299.275222" style="stroke: #000000; stroke-width: 0.8"/>
      </g>
     </g>
     <g id="text_14">
      <text style="font-size: 9.5px; font-family: 'DejaVu Sans'" transform="translate(76.781094 298.28737)">Project</text>
      <text style="font-size: 9.5px; font-family: 'DejaVu Sans'" transform="translate(72.921719 308.925292)">capture</text>
     </g>
    </g>
    <g id="ytick_8">
     <g id="line2d_20">
      <g>
       <use xlink:href="#m48840d7779" x="116.28" y="330.312036" style="stroke: #000000; stroke-width: 0.8"/>
      </g>
     </g>
     <g id="text_15">
      <text style="font-size: 9.5px; font-family: 'DejaVu Sans'" transform="translate(60.064062 329.324185)">Document</text>
      <text style="font-size: 9.5px; font-family: 'DejaVu Sans'" transform="translate(95.303125 339.962106)">QA</text>
     </g>
    </g>
    <g id="ytick_9">
     <g id="line2d_21">
      <g>
       <use xlink:href="#m48840d7779" x="116.28" y="361.34885" style="stroke: #000000; stroke-width: 0.8"/>
      </g>
     </g>
     <g id="text_16">
      <text style="font-size: 9.5px; font-family: 'DejaVu Sans'" transform="translate(68.035156 360.360999)">Learning</text>
      <text style="font-size: 9.5px; font-family: 'DejaVu Sans'" transform="translate(53.446719 370.998921)">explanation</text>
     </g>
    </g>
    <g id="ytick_10">
     <g id="line2d_22">
      <g>
       <use xlink:href="#m48840d7779" x="116.28" y="392.385665" style="stroke: #000000; stroke-width: 0.8"/>
      </g>
     </g>
     <g id="text_17">
      <text style="font-size: 9.5px; font-family: 'DejaVu Sans'" transform="translate(71.498203 391.397813)">Content</text>
      <text style="font-size: 9.5px; font-family: 'DejaVu Sans'" transform="translate(41.271875 402.035735)">categorization</text>
     </g>
    </g>
   </g>
   <g id="patch_3">
    <path d="M 116.28 113.054335 
L 392.554286 113.054335 
L 392.554286 123.606852 
L 116.28 123.606852 
z
" clip-path="url(#p311f57bc36)" style="fill: url(#hd6030a2ea7); stroke: #333333; stroke-width: 0.9; stroke-linejoin: miter"/>
   </g>
   <g id="patch_4">
    <path d="M 116.28 144.09115 
L 576.737143 144.09115 
L 576.737143 154.643666 
L 116.28 154.643666 
z
" clip-path="url(#p311f57bc36)" style="fill: url(#hd6030a2ea7); stroke: #333333; stroke-width: 0.9; stroke-linejoin: miter"/>
   </g>
   <g id="patch_5">
    <path d="M 116.28 175.127964 
L 116.28 175.127964 
L 116.28 185.680481 
L 116.28 185.680481 
z
" clip-path="url(#p311f57bc36)" style="fill: url(#hd6030a2ea7); stroke: #333333; stroke-width: 0.9; stroke-linejoin: miter"/>
   </g>
   <g id="patch_6">
    <path d="M 116.28 206.164778 
L 438.6 206.164778 
L 438.6 216.717295 
L 116.28 216.717295 
z
" clip-path="url(#p311f57bc36)" style="fill: url(#hd6030a2ea7); stroke: #333333; stroke-width: 0.9; stroke-linejoin: miter"/>
   </g>
   <g id="patch_7">
    <path d="M 116.28 237.201593 
L 530.691429 237.201593 
L 530.691429 247.75411 
L 116.28 247.75411 
z
" clip-path="url(#p311f57bc36)" style="fill: url(#hd6030a2ea7); stroke: #333333; stroke-width: 0.9; stroke-linejoin: miter"/>
   </g>
   <g id="patch_8">
    <path d="M 116.28 268.238407 
L 576.737143 268.238407 
L 576.737143 278.790924 
L 116.28 278.790924 
z
" clip-path="url(#p311f57bc36)" style="fill: url(#hd6030a2ea7); stroke: #333333; stroke-width: 0.9; stroke-linejoin: miter"/>
   </g>
   <g id="patch_9">
    <path d="M 116.28 299.275222 
L 438.6 299.275222 
L 438.6 309.827739 
L 116.28 309.827739 
z
" clip-path="url(#p311f57bc36)" style="fill: url(#hd6030a2ea7); stroke: #333333; stroke-width: 0.9; stroke-linejoin: miter"/>
   </g>
   <g id="patch_10">
    <path d="M 116.28 330.312036 
L 254.417143 330.312036 
L 254.417143 340.864553 
L 116.28 340.864553 
z
" clip-path="url(#p311f57bc36)" style="fill: url(#hd6030a2ea7); stroke: #333333; stroke-width: 0.9; stroke-linejoin: miter"/>
   </g>
   <g id="patch_11">
    <path d="M 116.28 361.34885 
L 576.737143 361.34885 
L 576.737143 371.901367 
L 116.28 371.901367 
z
" clip-path="url(#p311f57bc36)" style="fill: url(#hd6030a2ea7); stroke: #333333; stroke-width: 0.9; stroke-linejoin: miter"/>
   </g>
   <g id="patch_12">
    <path d="M 116.28 392.385665 
L 484.645714 392.385665 
L 484.645714 402.938182 
L 116.28 402.938182 
z
" clip-path="url(#p311f57bc36)" style="fill: url(#hd6030a2ea7); stroke: #333333; stroke-width: 0.9; stroke-linejoin: miter"/>
   </g>
   <g id="patch_13">
    <path d="M 116.28 102.501818 
L 576.737143 102.501818 
L 576.737143 113.054335 
L 116.28 113.054335 
z
" clip-path="url(#p311f57bc36)" style="fill: #4c4c4c; stroke: #262626; stroke-width: 0.9; stroke-linejoin: miter"/>
   </g>
   <g id="patch_14">
    <path d="M 116.28 133.538633 
L 576.737143 133.538633 
L 576.737143 144.09115 
L 116.28 144.09115 
z
" clip-path="url(#p311f57bc36)" style="fill: #4c4c4c; stroke: #262626; stroke-width: 0.9; stroke-linejoin: miter"/>
   </g>
   <g id="patch_15">
    <path d="M 116.28 164.575447 
L 208.371429 164.575447 
L 208.371429 175.127964 
L 116.28 175.127964 
z
" clip-path="url(#p311f57bc36)" style="fill: #4c4c4c; stroke: #262626; stroke-width: 0.9; stroke-linejoin: miter"/>
   </g>
   <g id="patch_16">
    <path d="M 116.28 195.612261 
L 530.691429 195.612261 
L 530.691429 206.164778 
L 116.28 206.164778 
z
" clip-path="url(#p311f57bc36)" style="fill: #4c4c4c; stroke: #262626; stroke-width: 0.9; stroke-linejoin: miter"/>
   </g>
   <g id="patch_17">
    <path d="M 116.28 226.649076 
L 530.691429 226.649076 
L 530.691429 237.201593 
L 116.28 237.201593 
z
" clip-path="url(#p311f57bc36)" style="fill: #4c4c4c; stroke: #262626; stroke-width: 0.9; stroke-linejoin: miter"/>
   </g>
   <g id="patch_18">
    <path d="M 116.28 257.68589 
L 576.737143 257.68589 
L 576.737143 268.238407 
L 116.28 268.238407 
z
" clip-path="url(#p311f57bc36)" style="fill: #4c4c4c; stroke: #262626; stroke-width: 0.9; stroke-linejoin: miter"/>
   </g>
   <g id="patch_19">
    <path d="M 116.28 288.722705 
L 530.691429 288.722705 
L 530.691429 299.275222 
L 116.28 299.275222 
z
" clip-path="url(#p311f57bc36)" style="fill: #4c4c4c; stroke: #262626; stroke-width: 0.9; stroke-linejoin: miter"/>
   </g>
   <g id="patch_20">
    <path d="M 116.28 319.759519 
L 530.691429 319.759519 
L 530.691429 330.312036 
L 116.28 330.312036 
z
" clip-path="url(#p311f57bc36)" style="fill: #4c4c4c; stroke: #262626; stroke-width: 0.9; stroke-linejoin: miter"/>
   </g>
   <g id="patch_21">
    <path d="M 116.28 350.796334 
L 561.388571 350.796334 
L 561.388571 361.34885 
L 116.28 361.34885 
z
" clip-path="url(#p311f57bc36)" style="fill: #4c4c4c; stroke: #262626; stroke-width: 0.9; stroke-linejoin: miter"/>
   </g>
   <g id="patch_22">
    <path d="M 116.28 381.833148 
L 576.737143 381.833148 
L 576.737143 392.385665 
L 116.28 392.385665 
z
" clip-path="url(#p311f57bc36)" style="fill: #4c4c4c; stroke: #262626; stroke-width: 0.9; stroke-linejoin: miter"/>
   </g>
   <g id="LineCollection_1">
    <path d="M 392.554286 118.330594 
L 392.554286 118.330594 
" clip-path="url(#p311f57bc36)" style="fill: none; stroke: #262626"/>
    <path d="M 576.737143 149.367408 
L 576.737143 149.367408 
" clip-path="url(#p311f57bc36)" style="fill: none; stroke: #262626"/>
    <path d="M 116.28 180.404222 
L 116.28 180.404222 
" clip-path="url(#p311f57bc36)" style="fill: none; stroke: #262626"/>
    <path d="M 438.6 211.441037 
L 438.6 211.441037 
" clip-path="url(#p311f57bc36)" style="fill: none; stroke: #262626"/>
    <path d="M 530.691429 242.477851 
L 530.691429 242.477851 
" clip-path="url(#p311f57bc36)" style="fill: none; stroke: #262626"/>
    <path d="M 576.737143 273.514666 
L 576.737143 273.514666 
" clip-path="url(#p311f57bc36)" style="fill: none; stroke: #262626"/>
    <path d="M 438.6 304.55148 
L 438.6 304.55148 
" clip-path="url(#p311f57bc36)" style="fill: none; stroke: #262626"/>
    <path d="M 254.417143 335.588295 
L 254.417143 335.588295 
" clip-path="url(#p311f57bc36)" style="fill: none; stroke: #262626"/>
    <path d="M 576.737143 366.625109 
L 576.737143 366.625109 
" clip-path="url(#p311f57bc36)" style="fill: none; stroke: #262626"/>
    <path d="M 484.645714 397.661923 
L 484.645714 397.661923 
" clip-path="url(#p311f57bc36)" style="fill: none; stroke: #262626"/>
   </g>
   <g id="line2d_23">
    <defs>
     <path id="m2390e33f35" d="M 0 3 
L 0 -3 
" style="stroke: #262626"/>
    </defs>
    <g clip-path="url(#p311f57bc36)">
     <use xlink:href="#m2390e33f35" x="392.554286" y="118.330594" style="fill: #1f77b4; stroke: #262626"/>
     <use xlink:href="#m2390e33f35" x="576.737143" y="149.367408" style="fill: #1f77b4; stroke: #262626"/>
     <use xlink:href="#m2390e33f35" x="116.28" y="180.404222" style="fill: #1f77b4; stroke: #262626"/>
     <use xlink:href="#m2390e33f35" x="438.6" y="211.441037" style="fill: #1f77b4; stroke: #262626"/>
     <use xlink:href="#m2390e33f35" x="530.691429" y="242.477851" style="fill: #1f77b4; stroke: #262626"/>
     <use xlink:href="#m2390e33f35" x="576.737143" y="273.514666" style="fill: #1f77b4; stroke: #262626"/>
     <use xlink:href="#m2390e33f35" x="438.6" y="304.55148" style="fill: #1f77b4; stroke: #262626"/>
     <use xlink:href="#m2390e33f35" x="254.417143" y="335.588295" style="fill: #1f77b4; stroke: #262626"/>
     <use xlink:href="#m2390e33f35" x="576.737143" y="366.625109" style="fill: #1f77b4; stroke: #262626"/>
     <use xlink:href="#m2390e33f35" x="484.645714" y="397.661923" style="fill: #1f77b4; stroke: #262626"/>
    </g>
   </g>
   <g id="line2d_24">
    <g clip-path="url(#p311f57bc36)">
     <use xlink:href="#m2390e33f35" x="392.554286" y="118.330594" style="fill: #1f77b4; stroke: #262626"/>
     <use xlink:href="#m2390e33f35" x="576.737143" y="149.367408" style="fill: #1f77b4; stroke: #262626"/>
     <use xlink:href="#m2390e33f35" x="116.28" y="180.404222" style="fill: #1f77b4; stroke: #262626"/>
     <use xlink:href="#m2390e33f35" x="438.6" y="211.441037" style="fill: #1f77b4; stroke: #262626"/>
     <use xlink:href="#m2390e33f35" x="530.691429" y="242.477851" style="fill: #1f77b4; stroke: #262626"/>
     <use xlink:href="#m2390e33f35" x="576.737143" y="273.514666" style="fill: #1f77b4; stroke: #262626"/>
     <use xlink:href="#m2390e33f35" x="438.6" y="304.55148" style="fill: #1f77b4; stroke: #262626"/>
     <use xlink:href="#m2390e33f35" x="254.417143" y="335.588295" style="fill: #1f77b4; stroke: #262626"/>
     <use xlink:href="#m2390e33f35" x="576.737143" y="366.625109" style="fill: #1f77b4; stroke: #262626"/>
     <use xlink:href="#m2390e33f35" x="484.645714" y="397.661923" style="fill: #1f77b4; stroke: #262626"/>
    </g>
   </g>
   <g id="LineCollection_2">
    <path d="M 576.737143 107.778077 
L 576.737143 107.778077 
" clip-path="url(#p311f57bc36)" style="fill: none; stroke: #262626"/>
    <path d="M 576.737143 138.814891 
L 576.737143 138.814891 
" clip-path="url(#p311f57bc36)" style="fill: none; stroke: #262626"/>
    <path d="M 208.371429 169.851705 
L 208.371429 169.851705 
" clip-path="url(#p311f57bc36)" style="fill: none; stroke: #262626"/>
    <path d="M 530.691429 200.88852 
L 530.691429 200.88852 
" clip-path="url(#p311f57bc36)" style="fill: none; stroke: #262626"/>
    <path d="M 530.691429 231.925334 
L 530.691429 231.925334 
" clip-path="url(#p311f57bc36)" style="fill: none; stroke: #262626"/>
    <path d="M 576.737143 262.962149 
L 576.737143 262.962149 
" clip-path="url(#p311f57bc36)" style="fill: none; stroke: #262626"/>
    <path d="M 530.691429 293.998963 
L 530.691429 293.998963 
" clip-path="url(#p311f57bc36)" style="fill: none; stroke: #262626"/>
    <path d="M 530.691429 325.035778 
L 530.691429 325.035778 
" clip-path="url(#p311f57bc36)" style="fill: none; stroke: #262626"/>
    <path d="M 534.804066 356.072592 
L 587.973077 356.072592 
" clip-path="url(#p311f57bc36)" style="fill: none; stroke: #262626"/>
    <path d="M 576.737143 387.109406 
L 576.737143 387.109406 
" clip-path="url(#p311f57bc36)" style="fill: none; stroke: #262626"/>
   </g>
   <g id="line2d_25">
    <g clip-path="url(#p311f57bc36)">
     <use xlink:href="#m2390e33f35" x="576.737143" y="107.778077" style="fill: #1f77b4; stroke: #262626"/>
     <use xlink:href="#m2390e33f35" x="576.737143" y="138.814891" style="fill: #1f77b4; stroke: #262626"/>
     <use xlink:href="#m2390e33f35" x="208.371429" y="169.851705" style="fill: #1f77b4; stroke: #262626"/>
     <use xlink:href="#m2390e33f35" x="530.691429" y="200.88852" style="fill: #1f77b4; stroke: #262626"/>
     <use xlink:href="#m2390e33f35" x="530.691429" y="231.925334" style="fill: #1f77b4; stroke: #262626"/>
     <use xlink:href="#m2390e33f35" x="576.737143" y="262.962149" style="fill: #1f77b4; stroke: #262626"/>
     <use xlink:href="#m2390e33f35" x="530.691429" y="293.998963" style="fill: #1f77b4; stroke: #262626"/>
     <use xlink:href="#m2390e33f35" x="530.691429" y="325.035778" style="fill: #1f77b4; stroke: #262626"/>
     <use xlink:href="#m2390e33f35" x="534.804066" y="356.072592" style="fill: #1f77b4; stroke: #262626"/>
     <use xlink:href="#m2390e33f35" x="576.737143" y="387.109406" style="fill: #1f77b4; stroke: #262626"/>
    </g>
   </g>
   <g id="line2d_26">
    <g clip-path="url(#p311f57bc36)">
     <use xlink:href="#m2390e33f35" x="576.737143" y="107.778077" style="fill: #1f77b4; stroke: #262626"/>
     <use xlink:href="#m2390e33f35" x="576.737143" y="138.814891" style="fill: #1f77b4; stroke: #262626"/>
     <use xlink:href="#m2390e33f35" x="208.371429" y="169.851705" style="fill: #1f77b4; stroke: #262626"/>
     <use xlink:href="#m2390e33f35" x="530.691429" y="200.88852" style="fill: #1f77b4; stroke: #262626"/>
     <use xlink:href="#m2390e33f35" x="530.691429" y="231.925334" style="fill: #1f77b4; stroke: #262626"/>
     <use xlink:href="#m2390e33f35" x="576.737143" y="262.962149" style="fill: #1f77b4; stroke: #262626"/>
     <use xlink:href="#m2390e33f35" x="530.691429" y="293.998963" style="fill: #1f77b4; stroke: #262626"/>
     <use xlink:href="#m2390e33f35" x="530.691429" y="325.035778" style="fill: #1f77b4; stroke: #262626"/>
     <use xlink:href="#m2390e33f35" x="587.973077" y="356.072592" style="fill: #1f77b4; stroke: #262626"/>
     <use xlink:href="#m2390e33f35" x="576.737143" y="387.109406" style="fill: #1f77b4; stroke: #262626"/>
    </g>
   </g>
   <g id="patch_23">
    <path d="M 116.28 417.96 
L 116.28 87.48 
" style="fill: none; stroke: #000000; stroke-width: 0.8; stroke-linejoin: miter; stroke-linecap: square"/>
   </g>
   <g id="patch_24">
    <path d="M 116.28 417.96 
L 599.76 417.96 
" style="fill: none; stroke: #000000; stroke-width: 0.8; stroke-linejoin: miter; stroke-linecap: square"/>
   </g>
   <g id="text_18">
    <text style="font-size: 14px; font-family: 'DejaVu Sans'; text-anchor: middle" x="358.02" y="75.48" transform="rotate(-0 358.02 75.48)">FMFBench Real App Experiences</text>
   </g>
   <g id="legend_1">
    <g id="patch_25">
     <path d="M 214.975977 48.863497 
L 241.575977 48.863497 
L 241.575977 42.213497 
L 214.975977 42.213497 
z
" style="fill: url(#hd6030a2ea7); stroke: #333333; stroke-width: 0.9; stroke-linejoin: miter"/>
    </g>
    <g id="text_19">
     <text style="font-size: 9.5px; font-family: 'DejaVu Sans'; text-anchor: start" x="249.175977" y="48.863497" transform="rotate(-0 249.175977 48.863497)">System: 70.0% +/- 0.0</text>
    </g>
    <g id="patch_26">
     <path d="M 375.735273 48.863497 
L 402.335273 48.863497 
L 402.335273 42.213497 
L 375.735273 42.213497 
z
" style="fill: #4c4c4c; stroke: #262626; stroke-width: 0.9; stroke-linejoin: miter"/>
    </g>
    <g id="text_20">
     <text style="font-size: 9.5px; font-family: 'DejaVu Sans'; text-anchor: start" x="409.935273" y="48.863497" transform="rotate(-0 409.935273 48.863497)">PCC: 87.7% +/- 0.6</text>
    </g>
   </g>
  </g>
  <g id="text_21">
   <text style="font-size: 8.5px; font-family: 'DejaVu Sans'; text-anchor: start; fill: #595959" x="116.28" y="464.13" transform="rotate(-0 116.28 464.13)">Error bars: sample SD across three live repetitions. Rule-based graders; PCC-as-judge excluded.</text>
  </g>
 </g>
 <defs>
  <clipPath id="p311f57bc36">
   <rect x="116.28" y="87.48" width="483.48" height="330.48"/>
  </clipPath>
 </defs>
 <defs>
  <pattern id="hd6030a2ea7" patternUnits="userSpaceOnUse" x="0" y="0" width="72" height="72">
   <rect x="0" y="0" width="73" height="73" fill="#ffffff"/>
   <path d="M -36 36 
L 36 -36 
M -33 39 
L 39 -33 
M -30 42 
L 42 -30 
M -27 45 
L 45 -27 
M -24 48 
L 48 -24 
M -21 51 
L 51 -21 
M -18 54 
L 54 -18 
M -15 57 
L 57 -15 
M -12 60 
L 60 -12 
M -9 63 
L 63 -9 
M -6 66 
L 66 -6 
M -3 69 
L 69 -3 
M 0 72 
L 72 0 
M 3 75 
L 75 3 
M 6 78 
L 78 6 
M 9 81 
L 81 9 
M 12 84 
L 84 12 
M 15 87 
L 87 15 
M 18 90 
L 90 18 
M 21 93 
L 93 21 
M 24 96 
L 96 24 
M 27 99 
L 99 27 
M 30 102 
L 102 30 
M 33 105 
L 105 33 
M 36 108 
L 108 36 
" style="fill: #333333; stroke: #333333; stroke-width: 1.0; stroke-linecap: butt; stroke-linejoin: miter"/>
  </pattern>
 </defs>
</svg>
